<svg width="1486" height="1618" viewBox="0 0 1486 1618" fill="none" xmlns="http://www.w3.org/2000/svg">
<path d="M67.5 741.5C68.6667 705.333 75.5 618.1 93.5 558.5L153.5 457.5L206 427.5L251 401L314.5 375H385.5H483H599H658.5H688.5V345V169V120.5L722.5 83L771 60.5H834.5H894.5V19.5L924.5 0.5H984.5L1018 19.5L1040.5 60.5H1156.5L1179 19.5L1212.5 0.5H1254L1284 19.5L1302.5 60.5H1388.5H1418.5L1467 83L1486 120.5V805.5V910L1467 955L1418.5 974L1388.5 996L1343.5 1142L1254 1295.5L1179 1381.5V1426.5L1130.5 1490.5L1040.5 1527.5L894.5 1595L688.5 1617.5L505.5 1595L344.5 1550L232 1490.5L131 1426.5L67.5 1352L0 1265.5L67.5 1232L153.5 1176L176 1112V1037.5L131 974L93.5 854L67.5 741.5Z" fill="white"/>
<path d="M761.562 384C769.225 384.675 772.796 389.411 777.562 395C789.471 409.59 798.594 426.831 803.562 445C803.867 446.102 804.171 447.204 804.484 448.34C813.262 481.836 805.967 517.318 788.805 546.859C776.916 566.492 759.896 582.82 740.562 595C739.953 595.385 739.344 595.77 738.716 596.166C729.756 601.731 720.302 606.007 710.562 610C708.933 610.687 708.933 610.687 707.27 611.388C698.302 615.121 689.278 618.053 679.875 620.5C679.151 620.69 678.427 620.88 677.681 621.075C660.486 625.541 643.172 628.698 625.562 631C624.758 631.105 623.953 631.211 623.123 631.32C577.676 637.167 531.075 637.161 485.562 632C484.161 631.858 482.759 631.718 481.357 631.58C469.612 630.393 458.051 628.472 446.438 626.375C444.593 626.046 442.747 625.718 440.902 625.391C436.455 624.6 432.008 623.802 427.562 623C427.899 624.209 428.235 625.419 428.582 626.665C429.031 628.282 429.48 629.899 429.93 631.516C430.15 632.309 430.371 633.103 430.598 633.92C434.768 648.924 437.766 663.51 439.562 679C439.708 680.171 439.708 680.171 439.857 681.365C444.06 717.982 438.355 756.016 427.562 791C427.162 792.441 426.765 793.882 426.371 795.324C410.981 850.582 410.981 850.582 398.562 863C398.372 868.444 398.77 873.659 399.551 879.051C399.655 879.79 399.758 880.53 399.866 881.292C400.086 882.846 400.308 884.4 400.534 885.953C400.872 888.295 401.198 890.638 401.521 892.982C402.57 900.388 403.845 907.467 405.963 914.655C406.886 918.266 406.96 921.519 406.938 925.25C406.945 926.555 406.953 927.859 406.961 929.203C406.111 937.299 401.792 943.988 395.969 949.512C387.224 956.38 376.298 957.163 365.562 956C355.04 953.32 347.012 947.278 341.25 938.125C336.282 929.561 333.87 920.855 332.438 911.125C332.282 910.126 332.126 909.127 331.965 908.098C331.328 904.017 330.702 899.935 330.093 895.851C329.184 890.007 328.078 884.519 325.938 879C325.679 878.327 325.42 877.654 325.154 876.961C319.189 862.158 309.404 850.906 294.832 844.375C283.344 839.544 270.052 839.111 258.316 843.598C245.148 850.303 236.509 861.857 230.562 875C230.216 875.759 229.869 876.519 229.512 877.301C223.248 894.013 227.889 916.477 234.785 932.16C235.372 933.443 235.965 934.722 236.562 936C236.874 936.671 237.186 937.343 237.507 938.035C247.848 959.855 263.765 979.455 284.562 992C285.425 992.523 285.425 992.523 286.305 993.058C295.746 998.649 305.314 1001.56 316.05 1003.75C324.226 1005.51 330.382 1008.59 336.125 1014.75C338.149 1019.33 338.538 1023.08 337.562 1028C334.915 1033.81 331.3 1038.07 325.562 1041C319.978 1042.95 315.015 1043.31 309.125 1043.25C308.317 1043.26 307.51 1043.27 306.678 1043.27C301.321 1043.26 296.709 1042.49 291.562 1041C291.568 1041.63 291.573 1042.27 291.578 1042.92C291.6 1045.9 291.612 1048.89 291.625 1051.88C291.633 1052.87 291.642 1053.86 291.65 1054.89C291.698 1070.03 290.55 1085.09 288.875 1100.12C288.791 1100.89 288.707 1101.65 288.62 1102.44C285.249 1132.53 279.121 1162.25 269.562 1191C269.002 1192.71 268.442 1194.41 267.883 1196.12C263.779 1208.57 263.779 1208.57 262.562 1211C262.13 1213.94 262.13 1213.94 262.562 1217C264.268 1218.96 264.268 1218.96 266.75 1220.38C267.67 1220.97 268.591 1221.56 269.539 1222.16C271.036 1223.07 271.036 1223.07 272.562 1224C274.028 1224.91 274.028 1224.91 275.523 1225.84C277.668 1227.16 279.816 1228.48 281.969 1229.79C288.925 1234.04 295.728 1238.55 302.562 1243C306.021 1245.25 309.479 1247.5 312.938 1249.75C313.795 1250.31 314.652 1250.87 315.535 1251.44C320.583 1254.72 325.648 1257.98 330.734 1261.2C340.507 1267.42 350.211 1273.74 359.836 1280.19C363.276 1282.47 366.761 1284.68 370.25 1286.89C374.706 1289.73 379.133 1292.62 383.562 1295.5C391.861 1300.9 400.19 1306.24 408.566 1311.52C427.885 1323.7 447.113 1336.02 466.227 1348.52C471.815 1352.17 477.414 1355.81 483.037 1359.41C486.655 1361.73 490.152 1364.15 493.625 1366.69C497.816 1369.48 500.587 1369.93 505.562 1369C508.295 1366.41 509.376 1364.56 510.562 1361C511.676 1360.81 511.676 1360.81 512.812 1360.62C515.382 1360.04 517.271 1359.26 519.562 1358C520.223 1357.67 520.883 1357.34 521.562 1357C521.707 1356.36 521.851 1355.72 522 1355.06C522.562 1353 522.562 1353 525.562 1351C525.562 1349.68 525.562 1348.36 525.562 1347C527.457 1345.09 529.276 1343.47 531.375 1341.81C531.965 1341.33 532.555 1340.85 533.164 1340.35C534.376 1339.36 535.593 1338.38 536.814 1337.4C539.291 1335.42 541.737 1333.39 544.188 1331.38C546.868 1329.19 549.551 1327.01 552.234 1324.83C557.782 1320.31 563.271 1315.73 568.722 1311.09C572.174 1308.16 575.664 1305.28 579.188 1302.44C580.063 1301.71 580.938 1300.99 581.84 1300.24C583.762 1298.66 585.716 1297.12 587.691 1295.61C588.701 1294.79 589.71 1293.97 590.75 1293.12C591.672 1292.41 592.593 1291.69 593.543 1290.95C597.426 1285.28 595.886 1278.38 594.793 1271.89C594.454 1270.15 594.106 1268.42 593.75 1266.69C592.227 1258.81 590.896 1250.95 589.812 1243C589.685 1242.09 589.558 1241.17 589.427 1240.23C588.833 1235.79 588.415 1231.5 588.562 1227C587.966 1226.95 587.37 1226.91 586.755 1226.86C580.297 1226.29 574.075 1225.22 567.75 1223.81C566.754 1223.59 565.759 1223.37 564.733 1223.15C550.857 1220.01 537.271 1216.04 523.812 1211.44C523.015 1211.17 522.217 1210.9 521.396 1210.62C510.376 1206.75 501.885 1201.33 495.477 1191.3C493.206 1185.59 493.445 1177.26 495.438 1171.45C499.151 1165.16 504.681 1160.39 511.562 1158C520.723 1156.85 528.883 1159.11 537.562 1161.81C539.937 1162.53 542.312 1163.24 544.688 1163.96C545.832 1164.3 546.976 1164.65 548.156 1165C555.574 1167.17 562.906 1168.95 570.562 1170C571.577 1170.3 572.591 1170.6 573.637 1170.9C578.22 1172.24 582.874 1173.12 587.562 1174C588.407 1174.16 589.251 1174.33 590.121 1174.5C603.548 1177.05 616.519 1178.33 630.16 1178.26C632.626 1178.25 635.091 1178.26 637.557 1178.27C657.833 1178.29 675.834 1175.18 692.562 1163C693.614 1162.24 694.666 1161.47 695.75 1160.69C712.272 1144.9 719.83 1123.6 725.375 1102C725.81 1100.33 725.81 1100.33 726.254 1098.62C729.835 1084.03 730.881 1069.38 730.621 1054.39C730.581 1051.97 730.557 1049.55 730.538 1047.12C730.48 1040.25 730.401 1033.38 730.295 1026.51C730.231 1022.27 730.191 1018.02 730.166 1013.78C730.152 1012.18 730.128 1010.58 730.095 1008.97C730.049 1006.74 730.034 1004.51 730.027 1002.28C730.009 1001.02 729.992 999.751 729.975 998.448C730.758 993.851 732.29 992.275 735.562 989C738.289 987.496 738.289 987.496 741.188 986.438C742.239 986.029 743.291 985.62 744.375 985.199C745.953 984.606 745.953 984.606 747.562 984C758.036 979.973 766.981 974 772.562 964C772.913 963.404 773.264 962.809 773.625 962.195C776.729 954.928 774.792 946.679 772.062 939.625C769.307 933.145 766.002 926.951 762.621 920.781C756.864 910.268 751.753 899.421 746.688 888.562C746.211 887.556 745.734 886.549 745.243 885.512C737.598 868.956 738.947 853.87 741.812 836.25C751.482 776.439 749.436 722.462 733.985 663.885C733.088 660.437 732.562 657.592 732.562 654C733.748 653.587 734.934 653.175 736.156 652.75C745.135 649.568 753.721 646.113 762.175 641.717C766.896 639.276 771.464 637.469 776.562 636C779.68 635.354 779.68 635.354 780.562 633C782.213 633 783.862 633 785.562 633C786.479 638.385 786.674 643.542 786.562 649C787.222 649 787.883 649 788.562 649C794.66 669.918 798.21 689.557 799.329 711.391C799.471 714.111 799.471 714.111 800.562 717C800.675 718.378 800.738 719.76 800.768 721.142C800.788 721.974 800.808 722.806 800.828 723.664C800.845 724.564 800.862 725.463 800.879 726.391C800.9 727.327 800.92 728.264 800.942 729.229C800.985 731.22 801.026 733.211 801.065 735.201C801.124 738.197 801.189 741.192 801.256 744.188C801.871 772.692 801.871 772.692 801.125 786.688C801.066 787.967 801.066 787.967 801.006 789.271C800.943 790.504 800.943 790.504 800.879 791.762C800.824 792.844 800.824 792.844 800.768 793.948C800.562 796 800.562 796 799.98 798.202C799.842 798.796 799.705 799.389 799.562 800C799.893 800.33 800.222 800.66 800.562 801C801.793 806.031 801.358 810.338 800.625 815.375C800.525 816.111 800.425 816.847 800.322 817.605C800.077 819.405 799.821 821.203 799.562 823C798.903 823 798.242 823 797.562 823C797.562 822.34 797.562 821.68 797.562 821C796.903 821 796.242 821 795.562 821C795.562 822.32 795.562 823.64 795.562 825C794.903 825 794.242 825 793.562 825C793.646 826.265 793.73 827.529 793.816 828.832C793.92 830.492 794.022 832.152 794.125 833.812C794.181 834.646 794.237 835.479 794.295 836.338C794.367 837.542 794.367 837.542 794.441 838.77C794.489 839.508 794.536 840.246 794.584 841.007C794.562 843 794.562 843 793.562 846C793.175 853.164 792.812 860.277 795.562 867C796.222 867.66 796.883 868.32 797.562 869C797.688 871.625 797.688 871.625 797.562 874C798.222 874 798.883 874 799.562 874C799.889 874.831 800.215 875.663 800.551 876.52C801.206 878.15 801.206 878.15 801.875 879.812C802.304 880.891 802.734 881.97 803.176 883.082C804.469 885.804 805.486 886.95 807.562 889C808.914 891.707 808.914 891.707 810.188 894.812C810.826 896.338 810.826 896.338 811.477 897.895C812.542 900.942 813.133 903.807 813.562 907C814.552 907 815.542 907 816.562 907C818.624 912.45 818.877 917.3 819.023 923.074C819.685 926.663 820.674 927.002 823.562 929C824.091 931.761 823.748 934.164 823.562 937C824.222 937 824.883 937 825.562 937C825.758 939.018 825.953 941.036 826.148 943.055C826.426 945.227 826.426 945.227 828.562 947C829.02 950.479 828.886 953.995 828.875 957.5C828.891 958.456 828.907 959.413 828.924 960.398C828.93 970.218 826.25 978.389 821.812 987.062C821.461 987.753 821.11 988.443 820.748 989.155C817.897 994.616 814.729 999.438 810.562 1004C809.835 1004.81 809.108 1005.61 808.359 1006.45C804.868 1010.13 801.778 1013.37 797.233 1015.73C790.677 1019.07 790.677 1019.07 786.858 1025.07C785.972 1030.32 786.125 1035.59 786.327 1040.88C786.477 1044.85 786.484 1048.8 786.499 1052.76C786.507 1054.74 786.523 1056.72 786.546 1058.7C786.778 1081.34 783.033 1104.21 776.504 1125.87C775.318 1129.82 774.291 1133.8 773.273 1137.79C772.562 1140 772.562 1140 770.562 1143C770.266 1143.9 769.97 1144.79 769.664 1145.71C768.395 1149.5 766.731 1153.01 764.938 1156.56C764.586 1157.26 764.234 1157.96 763.871 1158.68C758.465 1169.25 752.243 1178.92 744.562 1188C744.049 1188.64 743.536 1189.27 743.008 1189.93C729.179 1206.78 708.939 1218.45 688.509 1225.34C687.145 1225.8 685.786 1226.28 684.432 1226.77C678.94 1228.72 673.576 1229.83 667.812 1230.62C666.947 1230.75 666.082 1230.87 665.19 1231C658.329 1231.96 651.483 1232.63 644.562 1233C645.498 1239.72 646.558 1246.41 647.938 1253.06C648.258 1254.63 648.258 1254.63 648.586 1256.22C650.289 1261.07 653.758 1263.34 658.211 1265.59C659.577 1266.29 659.577 1266.29 660.971 1267.01C661.95 1267.5 662.929 1267.99 663.938 1268.5C666.037 1269.58 668.136 1270.65 670.234 1271.73C671.829 1272.55 671.829 1272.55 673.455 1273.38C678.074 1275.79 682.631 1278.3 687.188 1280.81C697.188 1286.32 707.318 1291.57 717.491 1296.75C724.344 1300.26 731.027 1303.93 737.562 1308C737.23 1307.47 736.897 1306.95 736.554 1306.41C726.87 1290.74 725.109 1272.53 728.227 1254.59C730.733 1244.06 735.575 1232.57 743.562 1225C746.188 1224.19 746.188 1224.19 748.562 1224C749.552 1223.67 750.542 1223.34 751.562 1223C752.243 1221.27 752.243 1221.27 752.938 1219.5C754.562 1216 754.562 1216 757.125 1215.06C758.604 1215.02 760.083 1215 761.562 1215C761.893 1213.35 762.222 1211.7 762.562 1210C763.552 1210 764.542 1210 765.562 1210C765.562 1209.01 765.562 1208.02 765.562 1207C787.016 1197.9 805.471 1196.56 827.438 1205.19C829.516 1206.07 831.542 1206.99 833.562 1208C833.707 1206.99 833.851 1205.98 834 1204.94C834.186 1203.64 834.371 1202.34 834.562 1201C834.748 1199.14 834.748 1199.14 834.938 1197.25C835.562 1194 835.562 1194 837.012 1192.63C839.083 1190.45 839.356 1188.54 840 1185.62C841.122 1181.11 842.516 1178.55 845.562 1175C845.945 1173.01 846.289 1171.01 846.562 1169C847.222 1168.67 847.883 1168.34 848.562 1168C848.562 1166.68 848.562 1165.36 848.562 1164C849.875 1162.25 849.875 1162.25 851.562 1161C852.552 1161 853.542 1161 854.562 1161C855.583 1159.68 856.582 1158.35 857.562 1157C858.552 1156.67 859.542 1156.34 860.562 1156C861.771 1154 861.771 1154 862.562 1152C863.552 1152 864.542 1152 865.562 1152C864.573 1151.34 863.583 1150.68 862.562 1150C870.666 1140.82 883.51 1134.66 895.562 1133C900.452 1132.75 905.324 1132.71 910.219 1132.74C912.492 1132.75 914.764 1132.74 917.037 1132.73C924.049 1132.72 930.754 1132.92 937.615 1134.55C939.994 1135.1 942.248 1135.27 944.688 1135.25C945.805 1135.26 945.805 1135.26 946.945 1135.27C949.751 1135.06 949.751 1135.06 953.104 1134C957.93 1132.77 962.555 1132.73 967.512 1132.77C968.446 1132.77 969.381 1132.77 970.343 1132.77C972.313 1132.77 974.282 1132.78 976.251 1132.79C979.224 1132.81 982.197 1132.81 985.17 1132.81C1006.72 1132.85 1006.72 1132.85 1017.01 1134.36C1020.91 1134.92 1023.9 1135.06 1027.73 1134.04C1043.59 1130.31 1061 1132.88 1075.29 1140.58C1079.29 1143.08 1082.93 1145.99 1086.56 1149C1087.37 1149.61 1088.18 1150.22 1089.02 1150.85C1102.12 1161.94 1111.05 1180.33 1112.8 1197.27C1113.16 1203.28 1113.12 1209.28 1113.1 1215.3C1113.1 1217.29 1113.11 1219.29 1113.12 1221.29C1113.14 1226.68 1113.14 1232.07 1113.13 1237.46C1113.13 1241.98 1113.13 1246.5 1113.14 1251.02C1113.16 1261.69 1113.16 1272.37 1113.14 1283.05C1113.12 1294.01 1113.14 1304.97 1113.17 1315.94C1113.2 1325.39 1113.2 1334.85 1113.2 1344.31C1113.19 1349.94 1113.19 1355.56 1113.21 1361.19C1113.23 1366.49 1113.23 1371.79 1113.2 1377.09C1113.2 1379.02 1113.2 1380.95 1113.21 1382.88C1113.35 1406.03 1108.27 1427.33 1092.56 1445C1091.99 1445.66 1091.43 1446.32 1090.84 1447C1081.12 1457.55 1069.17 1463.26 1055.56 1467C1054.6 1467.27 1054.6 1467.27 1053.62 1467.54C1051.51 1468.01 1049.61 1468.14 1047.45 1468.18C1046.67 1468.2 1045.9 1468.22 1045.11 1468.25C1043.5 1468.29 1041.9 1468.32 1040.29 1468.34C1034.85 1468.54 1032 1469.63 1027.56 1473C1025.28 1474.18 1023 1475.33 1020.69 1476.44C1014.82 1479.31 1009.06 1482.34 1003.34 1485.49C983.277 1496.54 962.714 1506.65 941.471 1515.23C938.698 1516.35 935.944 1517.52 933.188 1518.69C927.027 1521.25 920.802 1523.64 914.562 1526C913.833 1526.28 913.103 1526.55 912.352 1526.84C907.709 1528.59 903.047 1530.29 898.379 1531.97C896.631 1532.61 894.888 1533.26 893.152 1533.93C884.292 1537.32 875.152 1539.76 866.026 1542.31C862.824 1543.21 859.631 1544.14 856.438 1545.06C854.147 1545.71 851.855 1546.36 849.562 1547C848.556 1547.28 848.556 1547.28 847.53 1547.57C817.772 1555.9 786.941 1560.81 756.312 1564.65C754.434 1564.89 752.557 1565.13 750.681 1565.38C701.054 1571.95 649.466 1572.85 599.723 1567.24C596.609 1566.89 593.492 1566.57 590.375 1566.24C578.034 1564.94 565.702 1563.56 553.395 1561.97C552.223 1561.82 551.051 1561.67 549.843 1561.52C545.699 1560.86 541.725 1559.81 537.68 1558.72C532.838 1557.6 527.941 1557.08 523.008 1556.53C519.562 1556 519.562 1556 516.723 1555.03C513.627 1554.02 510.768 1553.49 507.547 1553.06C474.817 1548.28 442.55 1537.25 411.562 1526C410.662 1525.67 409.762 1525.35 408.834 1525.01C379.144 1514.14 349.846 1501.45 322.057 1486.35C319.299 1484.86 316.531 1483.38 313.762 1481.91C300.788 1474.98 288.076 1467.73 275.562 1460C274.561 1459.38 273.559 1458.77 272.526 1458.13C269.327 1456.15 266.131 1454.17 262.938 1452.19C261.954 1451.58 260.97 1450.97 259.957 1450.34C253.682 1446.41 247.596 1442.28 241.562 1438C239.501 1436.58 237.439 1435.16 235.375 1433.75C224.865 1426.5 214.56 1418.94 204.562 1411C203.42 1410.1 203.42 1410.1 202.254 1409.18C196.961 1404.99 191.796 1400.66 186.663 1396.28C182.692 1392.91 178.624 1389.68 174.5 1386.5C168.895 1382.16 163.642 1377.56 158.477 1372.7C156.25 1370.64 154.003 1368.63 151.711 1366.64C146.87 1362.43 142.221 1358.02 137.562 1353.61C134.348 1350.57 131.113 1347.6 127.754 1344.72C122.399 1340.07 117.475 1334.98 112.5 1329.94C104.53 1321.82 104.53 1321.82 96.0452 1314.26C93.749 1312.31 91.6724 1310.15 89.5625 1308C88.586 1307.06 87.6067 1306.13 86.625 1305.2C72.5924 1291.77 72.5924 1291.77 72 1282.81C72.9819 1276.16 76.3681 1272.91 81.5625 1269C83.3133 1267.93 85.0898 1266.89 86.8867 1265.9C88.4147 1265.05 88.4147 1265.05 89.9736 1264.18C91.5954 1263.29 91.5954 1263.29 93.25 1262.38C94.3763 1261.75 95.5026 1261.12 96.6631 1260.48C101.499 1257.79 106.342 1255.12 111.191 1252.46C121.673 1246.69 131.999 1240.68 142.308 1234.61C150.659 1229.69 159.037 1224.83 167.438 1220C177.806 1214.03 188.137 1208.02 198.281 1201.68C198.885 1201.3 199.49 1200.93 200.112 1200.54C201.761 1199.51 203.406 1198.47 205.051 1197.43C207.562 1196 207.562 1196 209.562 1196C209.663 1195.35 209.764 1194.69 209.867 1194.02C210.589 1190.89 211.623 1188.06 212.784 1185.08C227.226 1147.89 232.398 1107.97 234.374 1068.33C234.564 1064.97 234.849 1061.62 235.137 1058.27C236.074 1045.14 236.074 1045.14 230.619 1033.6C228.317 1030.98 225.901 1028.5 223.449 1026.03C220.068 1022.39 217.309 1018.33 214.5 1014.25C213.918 1013.41 213.336 1012.57 212.737 1011.71C206.577 1002.73 201.002 993.427 195.562 984C195.146 983.283 194.73 982.567 194.301 981.828C181.383 959.524 170.955 935.985 161.562 912C160.915 910.353 160.915 910.353 160.254 908.672C155.066 895.244 150.375 881.829 146.754 867.887C145.311 862.312 145.311 862.312 143 857.062C141.596 854.071 141.157 851.927 140.688 848.688C139.928 843.522 138.667 838.72 137.125 833.75C134.914 826.598 133.39 819.473 132.141 812.098C131.729 809.103 131.729 809.103 130.562 807C130.25 805.421 129.979 803.833 129.73 802.242C129.574 801.239 129.417 800.237 129.255 799.204C129.088 798.105 128.922 797.007 128.75 795.875C128.576 794.737 128.402 793.598 128.223 792.425C126.812 783.008 125.56 773.573 124.375 764.125C124.248 763.123 124.248 763.123 124.119 762.1C122.48 749.066 121.408 736.268 121.43 723.125C121.429 721.839 121.428 720.552 121.427 719.227C121.425 716.524 121.427 713.822 121.432 711.119C121.438 707.69 121.435 704.262 121.429 700.833C121.424 697.514 121.427 694.194 121.43 690.875C121.428 689.662 121.426 688.449 121.424 687.2C121.481 666.082 121.481 666.082 123.562 664C123.584 662.104 123.552 660.208 123.5 658.312C123.36 612.174 140.311 560.001 171.852 525.594C175.672 521.938 178.841 519.272 184.125 518.438C196.201 519.188 207.607 527.125 217.776 533.048C219.708 534.141 219.708 534.141 222.562 535C222.325 534.36 222.088 533.719 221.844 533.06C220.767 530.145 219.696 527.229 218.625 524.312C218.252 523.305 217.879 522.298 217.494 521.26C217.136 520.283 216.779 519.307 216.41 518.301C215.915 516.958 215.915 516.958 215.41 515.587C212.295 506.083 211.702 493.524 216.125 484.355C232.919 456.838 269.842 443.404 299.641 435.961C303.044 435.139 306.458 434.366 309.878 433.613C312.009 433.126 314.134 432.616 316.257 432.096C326.61 429.568 336.972 427.577 347.5 425.938C348.31 425.81 349.121 425.682 349.956 425.551C361.751 423.709 373.545 422.226 385.438 421.188C386.71 421.076 387.982 420.964 389.293 420.849C411.18 419.096 433.114 418.764 455.062 418.75C456.082 418.749 456.082 418.749 457.123 418.747C485.501 418.715 513.754 419.903 542.087 421.407C563.567 422.541 585.061 423.38 606.562 424C607.854 424.038 607.854 424.038 609.171 424.076C648.677 425.184 688.521 421.93 724.707 405.004C727.716 403.946 728.645 404.039 731.562 405C733.659 403.657 733.659 403.657 735.562 402C736.552 401.67 737.542 401.34 738.562 401C739.582 400.02 740.585 399.022 741.562 398C741.893 398 742.222 398 742.562 398C742.562 397.67 742.562 397.34 742.562 397C744.872 396.67 747.182 396.34 749.562 396C749.748 395.237 749.934 394.474 750.125 393.688C752.197 389.814 754.485 389.435 758.562 388C758.562 387.34 758.562 386.68 758.562 386C759.222 386 759.883 386 760.562 386C760.562 386.66 760.562 387.32 760.562 388C761.222 388 761.883 388 762.562 388C762.232 386.68 761.903 385.36 761.562 384ZM888.996 1193.11C885.984 1197.81 884.438 1200.97 884.401 1206.61C884.392 1207.78 884.382 1208.96 884.372 1210.17C884.368 1211.45 884.364 1212.72 884.359 1214.04C884.354 1215.35 884.348 1216.66 884.342 1218.01C884.332 1220.79 884.326 1223.57 884.322 1226.35C884.317 1229.89 884.293 1233.43 884.264 1236.98C884.241 1240.37 884.239 1243.77 884.234 1247.16C884.222 1248.43 884.21 1249.69 884.197 1251C884.222 1260.82 885.544 1267.81 892.562 1275C898.084 1278.9 903.001 1278.84 909.562 1278C915.774 1276.17 920.844 1274.46 924.562 1269C926.932 1267.93 928.026 1267.83 930.5 1268.62C933.202 1270.43 935.268 1272.71 937.562 1275C943.235 1279.06 948.814 1278.99 955.562 1278C960.088 1276.09 963.736 1274.01 965.648 1269.36C965.95 1268.58 966.252 1267.8 966.562 1267C968.208 1266.28 969.877 1265.62 971.562 1265C973.366 1262.99 973.366 1262.99 974.562 1261C974.975 1262.22 975.388 1263.43 975.812 1264.69C978.218 1271.03 981.666 1274.62 987.562 1278C991.266 1278.73 991.266 1278.73 995.125 1278.81C996.405 1278.88 997.685 1278.95 999.004 1279.02C1002.05 1279 1004.62 1278.74 1007.56 1278C1007.89 1278.66 1008.22 1279.32 1008.56 1280C1008.83 1279.38 1009.1 1278.76 1009.38 1278.12C1010.56 1276 1010.56 1276 1013.56 1274C1013.56 1273.34 1013.56 1272.68 1013.56 1272C1012.9 1272 1012.24 1272 1011.56 1272C1012.06 1271.55 1012.55 1271.09 1013.06 1270.62C1014.79 1269.12 1014.79 1269.12 1014.56 1267C1015.22 1266.67 1015.88 1266.34 1016.56 1266C1016.21 1265.28 1015.86 1264.56 1015.5 1263.81C1014.46 1260.69 1014.67 1259.12 1015.56 1256C1015.87 1256.95 1016.18 1257.9 1016.5 1258.88C1017.44 1261.86 1017.44 1261.86 1018.56 1264C1018.89 1263.67 1019.22 1263.34 1019.56 1263C1019.89 1264.01 1020.22 1265.02 1020.56 1266.06C1023.08 1272 1028.67 1276.55 1034.56 1279C1041.09 1280.32 1045.88 1278.42 1051.32 1274.86C1055.56 1271.34 1057.84 1267.16 1059.56 1262C1059.68 1260.1 1059.73 1258.2 1059.76 1256.29C1059.77 1255.12 1059.79 1253.95 1059.8 1252.74C1059.85 1247.37 1059.89 1242 1059.91 1236.63C1059.93 1233.8 1059.95 1230.98 1059.99 1228.15C1060.05 1224.07 1060.07 1219.98 1060.09 1215.9C1060.12 1214.01 1060.12 1214.01 1060.15 1212.09C1060.13 1203.17 1058.45 1197.25 1052.39 1190.62C1051.73 1190.09 1051.06 1189.55 1050.38 1189C1049.7 1188.44 1049.03 1187.89 1048.33 1187.31C1043.86 1184 1038.93 1184.47 1033.56 1185C1028.88 1187.21 1026.03 1190.53 1022.86 1194.51C1021.56 1196 1021.56 1196 1019.56 1197C1018.9 1197.99 1018.24 1198.98 1017.56 1200C1017.23 1199.34 1016.9 1198.68 1016.56 1198C1015.9 1199.32 1015.24 1200.64 1014.56 1202C1014.28 1201.42 1014 1200.84 1013.71 1200.24C1010.18 1193.35 1005.88 1188.02 998.562 1185C993.759 1184.32 989.737 1184.46 985.312 1186.5C981.09 1190.34 977.384 1194.53 975.562 1200C973.253 1200.33 970.943 1200.66 968.562 1201C968.16 1200.13 968.16 1200.13 967.75 1199.24C964.3 1192.37 960.014 1187.48 952.562 1185C946.006 1184.22 941.907 1185.12 936.562 1189C932.394 1193.4 929.671 1197.75 929.375 1203.88C929.437 1204.91 929.499 1205.94 929.562 1207C928.573 1207.33 927.583 1207.66 926.562 1208C923.873 1205.71 923.205 1204.22 922.75 1200.75C921.465 1194.22 917.652 1190.9 912.875 1186.56C903.382 1182.08 895.073 1184.93 888.996 1193.11ZM783.992 1258.01C780.265 1263.78 778.507 1269.04 779.562 1276C782.301 1283.43 786.619 1289.75 791.359 1296.02C793.876 1299.42 796.229 1302.91 798.562 1306.44C798.988 1307.08 799.414 1307.72 799.853 1308.39C800.696 1309.66 801.538 1310.94 802.379 1312.21C804.074 1314.77 805.789 1317.32 807.5 1319.88C814.512 1330.39 821.313 1341.05 828.146 1351.69C832.511 1358.48 836.887 1365.26 841.289 1372.03C842.442 1373.81 843.584 1375.6 844.723 1377.39C851.967 1388.61 860.611 1397.2 870.86 1405.6C873.685 1407.93 876.464 1410.31 879.25 1412.69C883.922 1416.66 888.676 1420.51 893.539 1424.25C895.562 1426 895.562 1426 897.211 1428.22C897.88 1429.1 897.88 1429.1 898.562 1430C899.222 1430 899.883 1430 900.562 1430C900.562 1444.19 900.562 1458.38 900.562 1473C905.093 1472.09 907.844 1471.01 911.867 1468.9C912.463 1468.59 913.06 1468.28 913.674 1467.96C915.598 1466.96 917.518 1465.95 919.438 1464.94C920.763 1464.24 922.089 1463.55 923.415 1462.86C931.045 1458.88 938.647 1454.84 946.227 1450.76C950.036 1448.75 953.888 1446.84 957.75 1444.94C963.462 1442.12 968.951 1439.06 974.422 1435.79C980.028 1432.59 985.827 1429.74 991.657 1426.97C993.567 1426.04 993.567 1426.04 995.275 1424.89C1002.53 1420.44 1011.14 1421.5 1019.35 1421.58C1030.68 1421.67 1041.75 1420.62 1050.62 1412.75C1056.87 1405.67 1058.72 1397.47 1058.68 1388.29C1058.68 1387.14 1058.68 1387.14 1058.68 1385.96C1058.68 1383.41 1058.67 1380.87 1058.66 1378.33C1058.66 1376.56 1058.66 1374.8 1058.66 1373.03C1058.65 1368.39 1058.64 1363.75 1058.63 1359.1C1058.62 1354.36 1058.62 1349.63 1058.61 1344.89C1058.6 1335.59 1058.58 1326.3 1058.56 1317C1057.62 1317 1056.68 1317 1055.72 1317C1032.85 1317.01 1009.98 1316.98 987.109 1316.92C976.049 1316.89 964.99 1316.87 953.93 1316.88C944.288 1316.89 934.647 1316.87 925.005 1316.83C919.902 1316.81 914.799 1316.8 909.696 1316.82C904.887 1316.83 900.08 1316.82 895.271 1316.79C893.511 1316.78 891.752 1316.78 889.992 1316.79C877.768 1316.88 869.752 1315.22 860.77 1306.41C859.625 1305.16 858.494 1303.9 857.375 1302.62C856.773 1301.96 856.172 1301.3 855.552 1300.61C852.067 1296.75 848.654 1292.83 845.266 1288.89C842.3 1285.6 839.108 1282.54 835.961 1279.43C833.943 1277.39 832.047 1275.31 830.188 1273.12C818.053 1258.38 818.053 1258.38 801.363 1250.73C793.933 1250.42 788.689 1252 783.992 1258.01Z" fill="#032537"/>
<path d="M902.491 142C906.585 141.975 910.678 141.957 914.771 141.945C916.164 141.94 917.557 141.933 918.95 141.925C920.951 141.912 922.951 141.907 924.952 141.902C926.157 141.897 927.361 141.892 928.602 141.887C931.491 142 931.491 142 933.491 143C935.486 176.01 935.486 176.01 932.491 182C932.422 183.54 932.407 185.083 932.429 186.625C932.438 187.442 932.447 188.26 932.456 189.102C932.468 189.728 932.479 190.355 932.491 191C931.831 191 931.171 191 930.491 191C929.123 193.737 929.275 196.043 929.175 199.102C929.133 200.313 929.091 201.525 929.048 202.773C929.009 204.044 928.969 205.316 928.929 206.625C928.864 208.543 928.864 208.543 928.798 210.5C928.692 213.667 928.589 216.833 928.491 220C929.811 220.33 931.131 220.66 932.491 221C932.491 221.99 932.491 222.98 932.491 224C933.151 224 933.811 224 934.491 224C934.532 224.557 934.574 225.114 934.616 225.688C936.123 229.67 939.751 232.13 943.491 234C943.491 234.66 943.491 235.32 943.491 236C944.461 236.103 945.43 236.206 946.429 236.313C949.41 236.72 951.991 237.502 954.804 238.563C959.806 240.339 964.215 240.223 969.491 240C966.521 239.67 963.551 239.34 960.491 239C960.491 238.67 960.491 238.34 960.491 238C961.623 237.867 962.755 237.734 963.921 237.598C965.403 237.42 966.884 237.241 968.366 237.063C969.113 236.976 969.859 236.889 970.628 236.799C974.687 236.367 974.687 236.367 978.491 235C979.907 234.898 981.324 234.818 982.741 234.75C987.847 234.224 990.005 232.741 993.491 229C994.889 226.349 994.889 226.349 995.491 224C996.151 224 996.811 224 997.491 224C997.491 223.34 997.491 222.68 997.491 222C998.151 222 998.811 222 999.491 222C1003.6 207.75 1004.94 193.391 998.601 179.598C997.184 176.281 997.2 173.564 997.491 170C997.306 169.01 997.12 168.02 996.929 167C996.408 163.432 996.965 160.569 997.491 157C997.383 154.178 997.245 151.367 997.038 148.551C997.491 146 997.491 146 999.42 143.867C1003.7 141.264 1007.16 141.478 1012.08 141.574C1013.01 141.578 1013.95 141.581 1014.91 141.584C1017.89 141.6 1020.88 141.644 1023.87 141.688C1025.84 141.699 1027.81 141.709 1029.78 141.717C1058.71 141.899 1058.71 141.899 1070.49 145C1070.49 144.34 1070.49 143.68 1070.49 143C1074.53 143.14 1078.57 143.288 1082.62 143.438C1083.76 143.477 1084.9 143.516 1086.08 143.557C1087.19 143.599 1088.29 143.64 1089.44 143.684C1090.96 143.739 1090.96 143.739 1092.52 143.795C1095.56 144.005 1098.49 144.451 1101.49 145C1101.82 144.34 1102.15 143.68 1102.49 143C1102.49 143.66 1102.49 144.32 1102.49 145C1105.72 144.692 1108.95 144.378 1112.18 144.063C1113.09 143.976 1114 143.889 1114.94 143.799C1116.27 143.668 1116.27 143.668 1117.63 143.535C1118.44 143.457 1119.25 143.378 1120.09 143.297C1122.54 143.025 1122.54 143.025 1125.11 142.475C1128.02 141.894 1130.77 141.868 1133.74 141.875C1135.33 141.871 1135.33 141.871 1136.94 141.867C1139.58 141.966 1142.05 142.173 1144.66 142.504C1150.29 143.171 1155.89 143.109 1161.55 143.063C1162.61 143.058 1163.67 143.054 1164.75 143.049C1167.33 143.037 1169.91 143.021 1172.49 143C1172.49 143.66 1172.49 144.32 1172.49 145C1173.15 145 1173.81 145 1174.49 145C1174.49 144.34 1174.49 143.68 1174.49 143C1175.63 143.186 1176.76 143.371 1177.93 143.563C1179.1 143.707 1180.28 143.851 1181.49 144C1181.82 143.67 1182.15 143.34 1182.49 143C1184.98 142.9 1187.44 142.861 1189.93 142.875C1190.62 142.871 1191.32 142.867 1192.03 142.863C1197.24 142.873 1197.24 142.873 1199.49 144C1199.47 145.97 1199.47 145.97 1199.46 147.981C1199.45 149.716 1199.44 151.452 1199.43 153.188C1199.42 154.052 1199.41 154.916 1199.4 155.807C1199.39 160.029 1199.51 163.872 1200.49 168C1200.84 172.343 1200.99 176.247 1198.49 180C1197.83 180 1197.17 180 1196.49 180C1196.55 181.547 1196.55 181.547 1196.62 183.125C1196.49 187 1196.49 187 1195.5 189.734C1194.31 193.589 1194.23 197.138 1194.3 201.125C1194.3 201.828 1194.3 202.53 1194.31 203.254C1194.33 206.667 1194.58 209.718 1195.49 213C1195.61 215.675 1195.54 218.32 1195.49 221C1196.81 221.33 1198.13 221.66 1199.49 222C1199.82 223.32 1200.15 224.64 1200.49 226C1201.15 226 1201.81 226 1202.49 226C1204.82 227.77 1205.44 228.816 1206.18 231.688C1206.28 232.451 1206.38 233.214 1206.49 234C1207.54 234.103 1208.59 234.206 1209.68 234.313C1213.46 234.995 1215.32 235.966 1218.49 238C1227.29 241.714 1235.72 239.945 1244.49 237C1247.01 235.777 1249.37 234.463 1251.75 232.988C1253.49 232 1253.49 232 1255.49 232C1255.49 231.34 1255.49 230.68 1255.49 230C1257 228.785 1258.51 227.572 1260.03 226.367C1262.01 224.514 1262.67 222.547 1263.49 220C1264.15 219.34 1264.81 218.68 1265.49 218C1266.84 216.012 1268.18 214.013 1269.49 212C1268.83 211.67 1268.17 211.34 1267.49 211C1268.81 210.34 1270.13 209.68 1271.49 209C1271.27 208.157 1271.06 207.314 1270.83 206.445C1270.42 204.802 1270.42 204.802 1269.99 203.125C1269.57 201.489 1269.57 201.489 1269.15 199.82C1268.49 197 1268.49 197 1268.49 195C1267.83 194.67 1267.17 194.34 1266.49 194C1266.3 192.169 1266.11 190.335 1266.03 188.496C1265.57 185.72 1265.57 185.72 1263.47 182.582C1260.44 176.76 1261.02 170.657 1261.18 164.25C1261.19 163.032 1261.2 161.814 1261.21 160.559C1261.33 150.885 1261.33 150.885 1262.49 147C1264.47 147 1266.45 147 1268.49 147C1268.49 145.68 1268.49 144.36 1268.49 143C1270.72 142.804 1272.95 142.619 1275.18 142.438C1276.42 142.333 1277.66 142.229 1278.94 142.121C1282.05 142.015 1284.5 142.228 1287.49 143C1287.49 143.66 1287.49 144.32 1287.49 145C1289.76 145.054 1292.03 145.093 1294.3 145.125C1295.57 145.148 1296.83 145.171 1298.14 145.195C1301.62 145.276 1301.62 145.276 1304.49 143C1306.85 142.746 1306.85 142.746 1309.67 142.741C1311.25 142.732 1311.25 142.732 1312.86 142.722C1314 142.726 1315.14 142.73 1316.31 142.734C1318.06 142.732 1318.06 142.732 1319.85 142.729C1322.31 142.727 1324.78 142.731 1327.25 142.739C1331.04 142.75 1334.83 142.739 1338.62 142.727C1341.02 142.728 1343.41 142.73 1345.81 142.734C1347.52 142.728 1347.52 142.728 1349.26 142.722C1350.84 142.732 1350.84 142.732 1352.45 142.741C1353.37 142.743 1354.3 142.744 1355.26 142.746C1357.49 143 1357.49 143 1359.49 145C1360.13 145.144 1360.77 145.289 1361.43 145.438C1363.95 146.125 1364.94 146.907 1366.49 149C1366.49 150.32 1366.49 151.64 1366.49 153C1367.48 153.33 1368.47 153.66 1369.49 154C1370.93 158.31 1370.88 162.69 1371.1 167.195C1371.26 170.34 1371.49 172.997 1372.49 176C1372.59 178.396 1372.62 180.794 1372.62 183.191C1372.62 183.928 1372.63 184.664 1372.63 185.423C1372.63 187.004 1372.63 188.585 1372.62 190.167C1372.62 192.447 1372.62 194.726 1372.63 197.006C1372.63 204.452 1372.55 211.889 1372.26 219.331C1371.21 247.288 1371.34 275.258 1371.36 303.231C1371.36 308.459 1371.36 313.687 1371.36 318.916C1371.36 319.668 1371.36 320.42 1371.36 321.194C1371.36 322.723 1371.36 324.251 1371.36 325.78C1371.35 339.985 1371.36 354.191 1371.36 368.396C1371.37 380.573 1371.37 392.751 1371.36 404.928C1371.36 419.139 1371.35 433.35 1371.36 447.56C1371.36 449.073 1371.36 450.586 1371.36 452.099C1371.36 452.843 1371.36 453.587 1371.36 454.353C1371.36 459.588 1371.36 464.823 1371.35 470.058C1371.35 476.417 1371.35 482.775 1371.36 489.134C1371.36 492.375 1371.36 495.616 1371.36 498.857C1371.36 502.366 1371.36 505.875 1371.36 509.384C1371.36 510.411 1371.36 511.438 1371.36 512.497C1371.36 513.904 1371.36 513.904 1371.37 515.339C1371.37 516.553 1371.37 516.553 1371.37 517.792C1371.49 519.988 1371.93 521.879 1372.49 524C1372.55 526.15 1372.55 528.301 1372.51 530.451C1372.48 532.422 1372.48 532.422 1372.45 534.433C1372.42 535.874 1372.4 537.314 1372.37 538.754C1372.35 540.253 1372.32 541.752 1372.3 543.251C1372.24 547.217 1372.17 551.184 1372.1 555.15C1371.97 562.164 1371.86 569.178 1371.75 576.191C1371.73 576.948 1371.72 577.705 1371.71 578.485C1371.48 592.657 1371.42 606.825 1371.49 621C1371.82 621 1372.15 621 1372.49 621C1372.41 622.314 1372.32 623.627 1372.24 624.98C1372.13 626.716 1372.03 628.452 1371.93 630.188C1371.87 631.052 1371.82 631.916 1371.76 632.807C1371.69 634.068 1371.69 634.068 1371.61 635.355C1371.57 636.125 1371.52 636.895 1371.47 637.688C1371.41 639.991 1371.41 639.991 1371.98 642.142C1372.63 645.785 1372.64 649.361 1372.64 653.047C1372.64 654.241 1372.64 654.241 1372.65 655.459C1372.66 658.079 1372.66 660.7 1372.66 663.32C1372.66 665.145 1372.67 666.969 1372.67 668.793C1372.68 672.611 1372.68 676.429 1372.68 680.247C1372.68 685.144 1372.69 690.041 1372.71 694.938C1372.72 698.703 1372.72 702.467 1372.72 706.231C1372.72 708.037 1372.73 709.844 1372.73 711.65C1372.74 714.17 1372.74 716.691 1372.73 719.211C1372.74 719.96 1372.75 720.708 1372.75 721.479C1372.73 725.206 1372.62 726.814 1370.49 730C1371.15 730 1371.81 730 1372.49 730C1372.49 730.99 1372.49 731.98 1372.49 733C1371.83 733 1371.17 733 1370.49 733C1371.15 733.66 1371.81 734.32 1372.49 735C1372.62 738.125 1372.62 738.125 1372.49 741C1371.83 741 1371.17 741 1370.49 741C1370.66 742.052 1370.82 743.104 1370.99 744.188C1371.63 749.145 1371.52 754.057 1371.43 759.047C1371.38 761.857 1371.38 761.857 1371.99 763.945C1372.84 767.429 1372.66 771.003 1372.67 774.573C1372.68 775.869 1372.68 775.869 1372.69 777.191C1372.71 780.048 1372.72 782.905 1372.73 785.762C1372.73 786.74 1372.74 787.718 1372.74 788.726C1372.76 793.904 1372.78 799.082 1372.79 804.26C1372.8 809.595 1372.83 814.93 1372.87 820.265C1372.9 824.378 1372.91 828.492 1372.91 832.606C1372.91 834.571 1372.93 836.537 1372.94 838.503C1372.97 841.262 1372.97 844.021 1372.96 846.78C1372.97 847.583 1372.99 848.386 1373 849.213C1372.94 856.1 1370.83 861.825 1366.74 867.375C1360.8 871.664 1354.77 872.439 1347.69 872.341C1346.85 872.341 1346.01 872.342 1345.14 872.342C1342.39 872.34 1339.65 872.317 1336.9 872.293C1334.98 872.287 1333.06 872.283 1331.15 872.28C1326.12 872.269 1321.1 872.239 1316.08 872.206C1310.94 872.175 1305.81 872.162 1300.67 872.147C1290.61 872.114 1280.55 872.063 1270.49 872C1270.49 871.34 1270.49 870.68 1270.49 870C1265.88 870.119 1261.27 870.243 1256.67 870.372C1255.1 870.416 1253.53 870.457 1251.97 870.497C1249.71 870.555 1247.45 870.619 1245.2 870.684C1244.5 870.7 1243.81 870.717 1243.09 870.734C1240.37 870.817 1237.77 870.941 1235.1 871.507C1232.38 872.021 1229.91 872.114 1227.15 872.098C1226.09 872.094 1225.04 872.091 1223.95 872.088C1222.81 872.079 1221.67 872.071 1220.5 872.063C1218.01 872.054 1215.53 872.045 1213.05 872.037C1211.75 872.031 1210.44 872.025 1209.1 872.018C1202.27 871.986 1195.45 871.977 1188.62 871.973C1187.94 871.972 1187.25 871.972 1186.54 871.971C1166.52 871.965 1146.51 872.412 1126.49 873C1125.73 873.022 1124.98 873.043 1124.2 873.066C1119.56 873.199 1114.93 873.344 1110.3 873.5C1109.22 873.535 1108.13 873.571 1107.01 873.607C1105.56 873.662 1105.56 873.662 1104.07 873.719C1103.25 873.749 1102.43 873.779 1101.58 873.811C1099.3 873.937 1099.3 873.937 1096.49 875C1095.5 874.67 1094.51 874.34 1093.49 874C1093.49 874.66 1093.49 875.32 1093.49 876C1091.67 876.65 1091.67 876.65 1089.8 877.313C1085.78 878.828 1082.08 880.414 1078.99 883.5C1076 886.491 1072.62 888.226 1068.49 889C1067.58 889.186 1066.68 889.371 1065.74 889.563C1065 889.707 1064.26 889.851 1063.49 890C1063.49 890.99 1063.49 891.98 1063.49 893C1062.24 893.651 1060.99 894.296 1059.74 894.938C1059.05 895.297 1058.35 895.657 1057.63 896.027C1055.59 896.956 1053.68 897.532 1051.49 898C1051.49 898.66 1051.49 899.32 1051.49 900C1049.18 900.66 1046.87 901.32 1044.49 902C1044.49 902.66 1044.49 903.32 1044.49 904C1043.5 904 1042.51 904 1041.49 904C1041.49 904.66 1041.49 905.32 1041.49 906C1039.51 906.33 1037.53 906.66 1035.49 907C1035.49 907.66 1035.49 908.32 1035.49 909C1030.74 911 1030.74 911 1028.49 911C1027.1 911.904 1025.75 912.872 1024.43 913.875C1023.36 914.676 1023.36 914.676 1022.27 915.492C1020.38 916.894 1020.38 916.894 1019.49 919C1017.67 920.148 1017.67 920.148 1015.37 921.375C1012.5 922.915 1009.67 924.471 1006.87 926.125C1002.54 928.531 998.198 930.431 993.491 932C993.491 932.66 993.491 933.32 993.491 934C989.043 937.097 984.072 938.803 979.038 940.719C976.171 941.786 976.171 941.786 975.491 945C971.802 947.869 970.247 949 965.491 949C965.491 949.66 965.491 950.32 965.491 951C964.171 951.33 962.851 951.66 961.491 952C961.491 952.66 961.491 953.32 961.491 954C959.841 954 958.191 954 956.491 954C956.161 955.32 955.831 956.64 955.491 958C953.181 958.33 950.871 958.66 948.491 959C947.32 951.857 947.898 946.043 949.491 939C950.151 939 950.811 939 951.491 939C952.127 936.478 952.745 933.953 953.358 931.426C958.246 911.375 958.246 911.375 962.116 906.563C964.876 903.006 965.022 899.956 965.249 895.551C965.57 892.168 966.642 889.274 967.796 886.098C968.786 883.112 969.132 880.117 969.491 877C969.811 875.331 970.139 873.663 970.491 872C969.831 871.67 969.171 871.34 968.491 871C968.161 870.67 967.831 870.34 967.491 870C965.433 870 963.374 870.005 961.315 870.035C956.928 869.981 952.58 869.535 948.214 869.121C945.525 868.78 945.525 868.78 943.491 870C941.505 870.062 939.517 870.06 937.53 870.027C936.337 870.015 935.143 870.003 933.913 869.99C931.39 869.955 928.866 869.916 926.343 869.873C925.147 869.862 923.95 869.851 922.718 869.84C921.62 869.823 920.523 869.806 919.392 869.789C916.529 869.997 914.911 870.513 912.491 872C912.491 872.66 912.491 873.32 912.491 874C911.831 874.33 911.171 874.66 910.491 875C909.926 877.505 909.598 880.011 909.249 882.555C908.31 885.586 907.165 886.384 904.491 888C901.531 889.48 898.531 889.13 895.288 889.114C894.546 889.114 893.804 889.114 893.04 889.114C890.584 889.113 888.127 889.106 885.671 889.098C883.97 889.096 882.269 889.094 880.568 889.093C876.086 889.09 871.605 889.08 867.123 889.069C862.552 889.059 857.981 889.054 853.409 889.049C844.437 889.038 835.464 889.021 826.491 889C825.82 887.711 825.154 886.419 824.491 885.125C824.12 884.406 823.749 883.686 823.366 882.945C822.491 881 822.491 881 822.491 879C821.831 879 821.171 879 820.491 879C819.235 876.094 818.491 874.204 818.491 871C817.831 871 817.171 871 816.491 871C814.97 868.303 813.479 865.591 811.991 862.875C811.562 862.115 811.133 861.354 810.69 860.57C808.32 856.207 806.903 853.11 807.491 848C806.831 847.67 806.171 847.34 805.491 847C803.182 840.074 802.213 834.346 803.366 827.125C804.179 821.726 804.717 816.39 804.991 810.938C805.241 806.069 805.698 801.314 806.491 796.5C807.388 790.575 807.779 784.721 808.011 778.734C808.052 777.708 808.093 776.682 808.135 775.624C808.649 761.873 808.888 748.115 809.104 734.357C809.165 730.465 809.239 726.574 809.316 722.683C809.374 719.654 809.422 716.624 809.468 713.593C809.491 712.156 809.518 710.72 809.548 709.283C809.589 707.294 809.616 705.305 809.642 703.315C809.671 701.625 809.671 701.625 809.7 699.901C809.49 696.977 808.895 695.513 807.491 693C807.058 690.279 806.706 687.612 806.429 684.875C806.303 683.742 806.303 683.742 806.175 682.586C805.631 677.628 805.171 672.665 804.835 667.688C804.722 667.131 804.608 666.574 804.491 666C803.831 665.67 803.171 665.34 802.491 665C801.564 660.64 801.218 656.179 800.741 651.75C800.59 650.509 800.44 649.267 800.284 647.988C800.151 646.791 800.019 645.593 799.882 644.359C799.758 643.261 799.635 642.162 799.508 641.03C799.49 637.797 800.118 635.895 801.491 633C802.586 629.411 802.586 629.411 801.534 625.938C800.059 621.782 800.084 617.879 800.054 613.5C800.021 612.658 799.988 611.817 799.954 610.949C799.916 606.511 799.977 604.635 802.854 601.082C804.16 600.051 804.16 600.051 805.491 599C806.357 598.072 807.224 597.144 808.116 596.188C810.491 594 810.491 594 813.491 594C813.61 593.411 813.728 592.822 813.851 592.215C815.482 586.575 820.223 581.819 824.491 578C825.481 577.67 826.471 577.34 827.491 577C828.185 575.344 828.846 573.675 829.491 572C830.874 569.982 832.317 568.005 833.804 566.063C834.409 565.259 834.409 565.259 835.027 564.439C836.994 561.848 839.009 559.427 841.304 557.125C844.304 552.839 845.216 548.366 846.519 543.336C847.323 540.575 848.094 538.581 849.616 536.188C851.306 533.316 851.849 531.784 852.429 528.625C853.081 525.171 854.105 522.689 855.929 519.688C858.581 515.238 859.684 510.872 860.808 505.844C861.393 503.409 862.103 501.245 863.054 498.938C866.057 491.287 866.736 483.467 866.464 475.313C866.491 473 866.491 473 867.491 470C868.255 457.716 868.114 445.04 865.491 433C865.303 432.124 865.115 431.248 864.922 430.345C864.047 426.27 863.169 422.197 862.256 418.131C861.127 413.092 860.184 408.115 859.491 403C858.616 400.376 857.601 398.183 856.179 395.813C852.086 388.992 848.85 381.697 845.604 374.445C845.237 373.638 844.87 372.831 844.491 372C844.196 371.276 843.901 370.551 843.597 369.805C842.615 367.834 842.615 367.834 840.476 367.039C838.491 366 838.491 366 837.444 363.836C837.096 362.618 837.096 362.618 836.741 361.375C836.499 360.558 836.257 359.741 836.007 358.898C835.837 358.272 835.667 357.646 835.491 357C834.831 357 834.171 357 833.491 357C833.244 356.051 832.996 355.103 832.741 354.125C831.822 350.918 831.822 350.918 829.429 349.75C828.47 349.379 828.47 349.379 827.491 349C826.996 348.01 826.996 348.01 826.491 347C824.795 346.3 823.098 345.601 821.398 344.91C818.304 343.434 815.93 341.25 813.366 339C809.873 335.952 806.547 333.258 802.491 331C803.481 330.67 804.471 330.34 805.491 330C805.491 329.01 805.491 328.02 805.491 327C804.171 326.34 802.851 325.68 801.491 325C801.445 303.573 801.409 282.146 801.388 260.719C801.377 250.77 801.363 240.822 801.34 230.873C801.32 222.202 801.307 213.532 801.303 204.861C801.3 200.269 801.294 195.678 801.28 191.086C801.266 186.765 801.262 182.443 801.265 178.122C801.264 176.536 801.26 174.949 801.253 173.363C801.243 171.197 801.245 169.031 801.251 166.865C801.248 165.047 801.248 165.047 801.245 163.192C801.488 160.046 802.144 157.833 803.491 155C804.151 155 804.811 155 805.491 155C805.553 154.299 805.615 153.598 805.679 152.875C806.796 148.922 808.693 147.003 811.491 144C814.449 142.521 817.14 142.868 820.429 142.875C821.675 142.872 822.922 142.87 824.206 142.867C827.491 143 827.491 143 830.491 144C831.985 144.119 833.483 144.186 834.981 144.221C835.89 144.244 836.8 144.268 837.738 144.291C839.219 144.321 839.219 144.321 840.729 144.352C842.276 144.386 842.276 144.386 843.854 144.422C846.051 144.469 848.247 144.515 850.444 144.558C853.725 144.623 857.005 144.702 860.286 144.781C874.068 145.082 887.731 144.816 901.491 144C901.821 143.34 902.151 142.68 902.491 142ZM905.491 299C904.077 299.146 902.66 299.27 901.241 299.375C899.385 299.684 899.385 299.684 897.491 300C896.249 301.9 896.249 301.9 895.491 304C893.116 305.063 893.116 305.063 890.491 306C889.14 306.976 887.802 307.97 886.491 309C886.161 309 885.831 309 885.491 309C885.422 319.014 885.368 329.029 885.336 339.044C885.32 343.694 885.299 348.345 885.265 352.996C885.232 357.489 885.214 361.982 885.207 366.476C885.201 368.185 885.19 369.894 885.174 371.603C885.033 384.086 885.033 384.086 888.491 396C889.481 396 890.471 396 891.491 396C891.862 397.361 891.862 397.361 892.241 398.75C893.553 402.16 894.608 403.795 897.491 406C898.811 406 900.131 406 901.491 406C901.821 406.99 902.151 407.98 902.491 409C905.721 410.298 909.081 410.139 912.522 410.161C913.741 410.171 914.96 410.18 916.216 410.19C917.533 410.195 918.85 410.199 920.206 410.203C920.881 410.206 921.556 410.209 922.252 410.212C925.833 410.227 929.414 410.236 932.995 410.24C936.66 410.246 940.324 410.27 943.988 410.298C946.834 410.317 949.68 410.322 952.526 410.324C954.523 410.328 956.519 410.347 958.516 410.366C974.47 410.328 974.47 410.328 988.003 402.883C990.384 399.87 992.292 396.635 994.132 393.27C995.41 391.136 996.748 389.739 998.491 388C998.986 386.515 998.986 386.515 999.491 385C1000.28 385.001 1001.07 385.002 1001.88 385.003C1021.27 385.025 1040.65 385.042 1060.03 385.052C1069.4 385.057 1078.77 385.064 1088.15 385.075C1096.33 385.086 1104.52 385.092 1112.7 385.094C1117.02 385.095 1121.34 385.098 1125.66 385.106C1143.69 385.136 1161.68 385.028 1179.7 384.356C1193.32 383.85 1206.92 383.924 1220.55 384C1225.52 384.027 1230.49 384.047 1235.46 384.063C1236.57 384.071 1237.68 384.079 1238.83 384.088C1244.16 384.105 1249.24 383.949 1254.49 383C1254.82 383.66 1255.15 384.32 1255.49 385C1257.1 384.717 1258.7 384.423 1260.3 384.125C1261.2 383.963 1262.09 383.8 1263.01 383.633C1265.72 383.088 1265.72 383.088 1268.49 381C1269.4 380.773 1270.31 380.546 1271.24 380.313C1275.78 378.48 1278.69 376.015 1281.49 372C1282.54 369.198 1283.27 366.478 1283.89 363.551C1284.47 361.105 1285.28 359.189 1286.49 357C1285.83 356.67 1285.17 356.34 1284.49 356C1284.8 354.36 1284.8 354.36 1285.12 352.688C1285.89 348.916 1285.89 348.916 1283.49 346C1282.91 344.452 1282.37 342.888 1281.87 341.313C1281.61 340.504 1281.35 339.696 1281.08 338.863C1280.88 338.248 1280.69 337.634 1280.49 337C1279.5 337 1278.51 337 1277.49 337C1277.16 336.34 1276.83 335.68 1276.49 335C1274.18 334.269 1271.84 333.599 1269.49 333C1269.49 332.34 1269.49 331.68 1269.49 331C1264.07 327.628 1259.6 327.574 1253.43 327.615C1251.91 327.607 1251.91 327.607 1250.37 327.599C1246.98 327.585 1243.6 327.592 1240.22 327.599C1237.79 327.594 1235.37 327.587 1232.94 327.578C1227.71 327.563 1222.49 327.557 1217.26 327.559C1209.7 327.561 1202.13 327.545 1194.56 327.524C1182.27 327.491 1169.98 327.469 1157.69 327.456C1156.58 327.455 1156.58 327.455 1155.46 327.454C1152.48 327.451 1149.5 327.448 1146.52 327.445C1138.33 327.436 1130.14 327.425 1121.95 327.413C1121.22 327.412 1120.48 327.411 1119.73 327.41C1107.49 327.392 1095.24 327.366 1083 327.335C1075.46 327.317 1067.92 327.306 1060.37 327.305C1054.59 327.303 1048.8 327.292 1043.01 327.278C1040.65 327.274 1038.28 327.273 1035.91 327.275C1032.67 327.279 1029.43 327.27 1026.19 327.258C1025.26 327.262 1024.33 327.266 1023.37 327.27C1009.79 327.184 1009.79 327.184 1004.49 325C1003.18 322.419 1003.18 322.419 1002.49 320C1001.83 320 1001.17 320 1000.49 320C1000.49 319.01 1000.49 318.02 1000.49 317C999.831 317 999.171 317 998.491 317C998.161 315.35 997.831 313.7 997.491 312C996.501 311.67 995.511 311.34 994.491 311C994.202 310.216 993.914 309.433 993.616 308.625C992.198 305.316 990.691 304.52 987.491 303C986.831 303 986.171 303 985.491 303C985.491 302.34 985.491 301.68 985.491 301C971.666 297.143 957.853 297.691 943.616 297.875C940.018 297.91 936.42 297.941 932.822 297.966C930.597 297.983 928.373 298.007 926.148 298.036C925.155 298.046 924.163 298.056 923.14 298.066C922.264 298.077 921.388 298.089 920.485 298.1C918.491 298 918.491 298 917.491 297C912.966 296.684 909.741 297.555 905.491 299ZM896.491 433C896.161 433.99 895.831 434.98 895.491 436C893.841 436.33 892.191 436.66 890.491 437C890.161 438.32 889.831 439.64 889.491 441C888.831 441 888.171 441 887.491 441C885.931 445.857 885.233 449.961 885.201 455.109C885.194 455.782 885.187 456.454 885.18 457.147C885.161 459.348 885.157 461.549 885.155 463.75C885.149 465.293 885.142 466.835 885.135 468.378C885.123 471.602 885.119 474.826 885.121 478.051C885.121 482.17 885.093 486.288 885.059 490.407C885.037 493.59 885.033 496.773 885.034 499.956C885.031 501.474 885.023 502.992 885.007 504.51C884.813 515.418 884.813 515.418 889.491 525C889.739 526.33 889.739 526.33 889.991 527.688C890.665 530.806 892.026 532.043 894.491 534C895.481 534 896.471 534 897.491 534C897.821 535.32 898.151 536.64 898.491 538C901.787 538.985 904.782 539.132 908.215 539.145C909.368 539.152 910.52 539.158 911.708 539.165C912.952 539.166 914.197 539.167 915.479 539.168C916.77 539.171 918.061 539.175 919.39 539.178C922.128 539.184 924.866 539.186 927.604 539.185C931.068 539.185 934.533 539.199 937.997 539.216C941.346 539.23 944.694 539.229 948.042 539.23C949.876 539.241 949.876 539.241 951.746 539.252C969.959 539.602 969.959 539.602 985.991 532.813C986.816 531.884 987.641 530.956 988.491 530C989.253 529.155 989.253 529.155 990.03 528.293C993.468 524.406 996.144 520.443 998.652 515.896C1001.35 513.113 1003.41 513.44 1007.24 513.355C1007.92 513.337 1008.61 513.318 1009.31 513.298C1010.78 513.262 1012.24 513.235 1013.71 513.216C1015.84 513.189 1017.96 513.134 1020.09 513.072C1029.16 512.855 1038.19 513.109 1047.25 513.48C1063.46 514.134 1079.66 514.153 1095.88 514.13C1100.07 514.125 1104.26 514.128 1108.46 514.134C1111.75 514.138 1115.04 514.136 1118.34 514.134C1119.89 514.133 1121.43 514.134 1122.98 514.136C1130.07 514.145 1137.11 514.085 1144.19 513.496C1152.83 512.809 1161.47 512.888 1170.14 512.925C1173.22 512.938 1176.3 512.944 1179.38 512.949C1187.02 512.962 1194.66 512.986 1202.31 513.01C1208.79 513.03 1215.27 513.046 1221.75 513.056C1224.76 513.062 1227.77 513.075 1230.78 513.088C1252.08 514.542 1252.08 514.542 1271.23 508.555C1272.7 507.075 1272.7 507.075 1272.49 505C1273.98 504.505 1273.98 504.505 1275.49 504C1275.49 503.34 1275.49 502.68 1275.49 502C1276.15 502 1276.81 502 1277.49 502C1282.96 496.118 1284.26 489.939 1284.49 482C1283.77 474.41 1281.48 469.012 1276.31 463.426C1274.35 461.89 1272.92 461.401 1270.49 461C1270.49 460.34 1270.49 459.68 1270.49 459C1264.57 455.932 1259.75 455.581 1253.14 455.646C1251.6 455.643 1251.6 455.643 1250.03 455.64C1246.59 455.638 1243.15 455.657 1239.71 455.675C1237.24 455.678 1234.77 455.679 1232.3 455.679C1226.98 455.682 1221.67 455.693 1216.36 455.713C1208.66 455.742 1200.97 455.754 1193.28 455.76C1180.78 455.772 1168.29 455.796 1155.79 455.829C1143.68 455.86 1131.56 455.889 1119.45 455.911C1118.71 455.912 1117.96 455.913 1117.19 455.915C1109.04 455.929 1100.9 455.943 1092.75 455.954C1091.67 455.956 1091.67 455.956 1090.57 455.957C1087.71 455.961 1084.84 455.965 1081.98 455.969C1073.6 455.981 1065.22 455.996 1056.84 456.02C1050.96 456.036 1045.08 456.048 1039.19 456.058C1036.79 456.063 1034.38 456.07 1031.97 456.079C1028.68 456.091 1025.39 456.096 1022.09 456.1C1021.14 456.105 1020.19 456.11 1019.22 456.115C1013.56 456.114 1008.1 455.722 1002.49 455C1002.27 454.103 1002.27 454.103 1002.05 453.188C1000.99 448.828 1000.99 448.828 997.491 446C997.182 445.051 996.872 444.103 996.554 443.125C995.396 439.72 994.071 438.413 991.491 436C990.996 434.515 990.996 434.515 990.491 433C989.501 433 988.511 433 987.491 433C987.491 432.34 987.491 431.68 987.491 431C979.227 428.683 971.128 428.708 962.616 428.734C961.081 428.733 959.546 428.731 958.011 428.729C954.807 428.726 951.603 428.73 948.399 428.739C944.314 428.751 940.23 428.744 936.145 428.732C932.979 428.725 929.813 428.727 926.647 428.732C925.142 428.734 923.637 428.732 922.131 428.727C908.716 428.335 908.716 428.335 896.491 433ZM894.491 561C894.491 562.32 894.491 563.64 894.491 565C893.707 565.103 892.924 565.206 892.116 565.313C889.161 565.776 889.161 565.776 887.491 569C885.377 575.631 885.152 581.906 885.077 588.832C885.058 589.946 885.038 591.059 885.018 592.206C884.959 595.742 884.912 599.277 884.866 602.813C884.828 605.208 884.789 607.603 884.749 609.998C884.477 624.689 884.477 624.689 884.804 639.375C884.826 640.13 884.849 640.886 884.872 641.664C885.131 647.044 886.123 650.631 890.054 654.563C891.491 656 891.491 656 892.349 657.953C894.118 661.123 896.379 661.861 899.659 663.197C905.344 664.809 911.184 664.728 917.054 664.828C918.454 664.866 919.855 664.905 921.255 664.946C924.921 665.048 928.586 665.127 932.253 665.202C935.965 665.282 939.677 665.384 943.39 665.484C951.09 665.687 958.79 665.871 966.491 666C967.859 666.025 967.859 666.025 969.253 666.051C977.664 666.143 982.209 664.536 988.304 658.688C991.479 655.327 993.681 652.287 995.491 648C999.07 642.421 999.07 642.421 1000.49 641C1003.86 640.854 1006.28 640.928 1009.49 642C1009.82 641.67 1010.15 641.34 1010.49 641C1011.9 640.912 1013.31 640.893 1014.72 640.902C1015.61 640.906 1016.51 640.909 1017.44 640.912C1018.42 640.921 1019.4 640.929 1020.41 640.938C1021.41 640.941 1022.41 640.945 1023.44 640.949C1027.75 640.965 1032.06 640.993 1036.36 641.021C1039.5 641.039 1042.64 641.051 1045.78 641.063C1046.75 641.071 1047.71 641.079 1048.71 641.088C1053.76 641.106 1058.49 640.762 1063.49 640C1065.98 639.922 1068.47 639.892 1070.96 639.902C1071.97 639.905 1071.97 639.905 1073.01 639.907C1075.15 639.912 1077.29 639.925 1079.43 639.938C1080.89 639.943 1082.35 639.947 1083.81 639.951C1087.37 639.962 1090.93 639.979 1094.49 640C1094.49 640.66 1094.49 641.32 1094.49 642C1096.97 642.194 1099.45 642.38 1101.93 642.563C1102.99 642.647 1102.99 642.647 1104.07 642.732C1105.88 642.862 1107.68 642.935 1109.49 643C1109.82 642.67 1110.15 642.34 1110.49 642C1114.1 641.617 1117.74 641.53 1121.37 641.375C1122.39 641.323 1123.41 641.272 1124.46 641.219C1125.43 641.175 1126.41 641.131 1127.42 641.086C1128.32 641.045 1129.22 641.004 1130.15 640.962C1132.49 641 1132.49 641 1135.49 642C1139.07 642.167 1139.07 642.167 1142.49 642C1142.82 641.67 1143.15 641.34 1143.49 641C1158.04 639.558 1172.66 640.052 1187.24 640.438C1203.55 640.865 1219.86 641.14 1236.18 641.178C1238.46 641.184 1240.75 641.194 1243.04 641.208C1246.23 641.226 1249.43 641.23 1252.62 641.23C1254.06 641.241 1254.06 641.241 1255.52 641.252C1256.84 641.248 1256.84 641.248 1258.18 641.243C1259.33 641.245 1259.33 641.245 1260.5 641.247C1262.81 641.112 1262.81 641.112 1265.49 639C1266.95 638.536 1266.95 638.536 1268.43 638.063C1271.48 637.005 1273.3 636.355 1275.49 634C1276.3 630.395 1276.3 630.395 1276.49 627C1277.48 627 1278.47 627 1279.49 627C1282.13 623.039 1282.54 619.39 1283.3 614.75C1283.46 613.916 1283.62 613.082 1283.79 612.223C1284.75 606.393 1284.28 603.212 1281.49 598C1281.08 596.948 1280.67 595.896 1280.24 594.813C1278.23 591.584 1276.57 590.538 1273.24 588.875C1271.49 588 1271.49 588 1269.12 586.313C1262.55 583.029 1254.14 583.866 1246.96 583.918C1245.42 583.923 1245.42 583.923 1243.85 583.928C1240.44 583.94 1237.03 583.959 1233.61 583.978C1231.16 583.988 1228.7 583.998 1226.25 584.007C1220.97 584.028 1215.7 584.052 1210.43 584.079C1202.8 584.119 1195.17 584.152 1187.55 584.184C1175.18 584.236 1162.8 584.292 1150.43 584.352C1138.41 584.41 1126.4 584.465 1114.38 584.518C1113.64 584.521 1112.9 584.524 1112.13 584.528C1108.41 584.544 1104.7 584.56 1100.98 584.576C1070.15 584.711 1039.32 584.853 1008.49 585C1008.49 584.34 1008.49 583.68 1008.49 583C1007.91 582.814 1007.34 582.629 1006.74 582.438C1004.09 580.744 1003.21 578.885 1001.76 576.152C999.178 571.78 995.947 567.718 992.491 564C991.831 564 991.171 564 990.491 564C990.388 563.381 990.285 562.763 990.179 562.125C989.616 559.635 989.616 559.635 986.491 558C983.709 557.8 981.027 557.717 978.244 557.725C977.403 557.72 976.562 557.715 975.695 557.71C972.911 557.696 970.127 557.697 967.343 557.699C965.408 557.695 963.474 557.691 961.54 557.686C957.483 557.679 953.426 557.679 949.369 557.684C944.171 557.69 938.974 557.673 933.777 557.65C929.781 557.635 925.785 557.634 921.789 557.638C919.872 557.637 917.956 557.632 916.04 557.622C913.359 557.609 910.679 557.616 907.998 557.628C907.207 557.62 906.416 557.612 905.601 557.605C901.119 557.647 897.928 557.985 894.491 561ZM890.991 688.375C890.496 689.241 890.001 690.108 889.491 691C888.723 692.145 888.723 692.145 887.939 693.314C886.339 696.282 886.018 698.263 885.826 701.609C885.761 702.664 885.697 703.719 885.631 704.807C885.42 709.624 885.24 714.437 885.14 719.258C885.116 720.286 885.093 721.314 885.069 722.373C885.022 724.532 884.977 726.692 884.934 728.852C884.867 732.097 884.789 735.341 884.71 738.586C884.441 750.781 884.57 762.835 885.491 775C886.481 775 887.471 775 888.491 775C889.151 777.97 889.811 780.94 890.491 784C891.151 784 891.811 784 892.491 784C893.151 785.65 893.811 787.3 894.491 789C897.131 789.33 899.771 789.66 902.491 790C902.491 790.66 902.491 791.32 902.491 792C916.204 793.174 929.912 793.186 943.667 793.185C947.576 793.188 951.486 793.206 955.396 793.225C957.897 793.228 960.399 793.23 962.901 793.231C964.642 793.241 964.642 793.241 966.418 793.252C976.489 793.352 976.489 793.352 985.116 788.75C985.9 787.843 986.684 786.935 987.491 786C988.275 785.113 989.059 784.226 989.866 783.313C991.479 781.434 992.623 779.741 993.753 777.522C995.413 774.504 996.937 772.326 999.491 770C1004.46 768.619 1009.33 768.855 1014.44 769.059C1015.89 769.08 1017.35 769.096 1018.81 769.109C1022.63 769.152 1026.45 769.255 1030.28 769.372C1034.92 769.502 1039.56 769.563 1044.2 769.635C1047.82 769.692 1051.43 769.759 1055.04 769.857C1056.99 769.905 1056.99 769.905 1058.98 769.955C1060.12 769.987 1061.26 770.02 1062.43 770.053C1065.39 770.099 1065.39 770.099 1067.81 769.509C1071.84 768.744 1075.83 768.879 1079.93 768.902C1080.88 768.904 1081.82 768.905 1082.79 768.907C1084.83 768.911 1086.88 768.917 1088.92 768.925C1092.15 768.938 1095.39 768.944 1098.62 768.949C1105.47 768.96 1112.32 768.98 1119.18 769C1127.13 769.024 1135.08 769.044 1143.03 769.056C1146.22 769.062 1149.41 769.075 1152.6 769.088C1154.55 769.091 1156.49 769.095 1158.44 769.098C1159.33 769.103 1160.22 769.108 1161.14 769.113C1165.45 769.246 1165.45 769.246 1169.49 768C1171.49 768.328 1173.49 768.663 1175.49 769C1178.3 769.106 1181.09 769.167 1183.91 769.177C1185.14 769.187 1185.14 769.187 1186.4 769.197C1189.12 769.217 1191.83 769.228 1194.54 769.238C1195.47 769.242 1196.4 769.246 1197.36 769.251C1202.29 769.271 1207.21 769.286 1212.14 769.295C1217.21 769.306 1222.27 769.341 1227.34 769.38C1231.26 769.407 1235.17 769.415 1239.09 769.419C1240.96 769.423 1242.82 769.435 1244.69 769.454C1258.58 769.689 1258.58 769.689 1271.49 765C1272.6 764.443 1273.72 763.886 1274.87 763.313C1281.28 757.661 1282.23 749.311 1282.87 741.188C1282.96 740.26 1283.05 739.333 1283.15 738.377C1283.7 732.434 1283.7 732.434 1281.49 727C1280.83 727 1280.17 727 1279.49 727C1279.59 726.263 1279.69 725.525 1279.8 724.766C1279.75 721.84 1279.75 721.84 1277.44 719.797C1276.51 719.121 1275.58 718.446 1274.62 717.75C1273.71 717.064 1272.81 716.378 1271.87 715.672C1264.67 712.109 1255.87 712.853 1247.96 712.862C1246.95 712.859 1245.93 712.856 1244.89 712.853C1241.53 712.845 1238.16 712.844 1234.79 712.842C1232.37 712.838 1229.95 712.833 1227.52 712.827C1222.32 712.816 1217.11 712.807 1211.9 712.801C1203.67 712.79 1195.44 712.77 1187.21 712.748C1184.39 712.74 1181.57 712.733 1178.75 712.725C1178.04 712.724 1177.34 712.722 1176.61 712.72C1168.6 712.699 1160.6 712.68 1152.59 712.662C1151.86 712.661 1151.13 712.659 1150.38 712.657C1138.51 712.631 1126.65 712.612 1114.78 712.596C1102.59 712.578 1090.39 712.549 1078.19 712.511C1070.68 712.487 1063.16 712.473 1055.65 712.471C1049.89 712.469 1044.14 712.451 1038.38 712.427C1036.02 712.42 1033.66 712.418 1031.3 712.422C1028.08 712.425 1024.86 712.411 1021.64 712.392C1020.71 712.398 1019.78 712.403 1018.81 712.409C1013.3 712.353 1009.35 711.679 1004.49 709C1003.55 706.813 1003.55 706.813 1003.49 705C1002.17 705 1000.85 705 999.491 705C999.491 704.01 999.491 703.02 999.491 702C998.831 702 998.171 702 997.491 702C997.45 701.093 997.409 700.185 997.366 699.25C996.199 694.914 994.222 694.313 990.491 692C989.996 691.134 989.501 690.268 988.991 689.375C986.619 685.619 983.355 685.438 979.234 684.469C975.959 683.909 972.811 683.813 969.489 683.747C968.461 683.725 968.461 683.725 967.412 683.703C965.155 683.656 962.897 683.616 960.64 683.578C959.864 683.564 959.088 683.55 958.288 683.536C954.178 683.463 950.067 683.396 945.957 683.333C941.737 683.267 937.518 683.182 933.298 683.093C930.032 683.027 926.765 682.976 923.497 682.929C921.943 682.904 920.389 682.873 918.836 682.838C903.863 682.1 903.863 682.1 890.991 688.375Z" fill="#EAAC4D"/>
<path d="M976.982 45.2104C985.185 49.8695 989.969 55.5798 992.545 64.7104C992.912 67.7537 992.898 70.7425 992.838 73.8041C992.834 74.6362 992.829 75.4684 992.825 76.3257C992.808 78.9543 992.771 81.5821 992.732 84.2104C992.717 86.0046 992.704 87.7989 992.691 89.5932C992.659 93.9659 992.607 98.338 992.545 102.71C993.611 102.604 993.611 102.604 994.698 102.496C1004.87 101.588 1014.99 101.576 1025.2 101.597C1027.15 101.597 1029.1 101.597 1031.05 101.596C1036.32 101.596 1041.58 101.602 1046.85 101.609C1052.36 101.615 1057.87 101.616 1063.39 101.617C1073.81 101.62 1084.24 101.628 1094.67 101.638C1106.54 101.65 1118.42 101.655 1130.3 101.66C1154.71 101.67 1179.13 101.688 1203.55 101.71C1204.3 98.8386 1204.66 96.3577 1204.64 93.3822C1204.64 92.1834 1204.64 92.1834 1204.63 90.9604C1204.62 90.1354 1204.62 89.3104 1204.61 88.4604C1204.6 87.1997 1204.6 87.1997 1204.59 85.9135C1204.58 83.8458 1204.56 81.7781 1204.55 79.7104C1203.89 81.0304 1203.23 82.3504 1202.55 83.7104C1202.4 80.3775 1202.31 77.0455 1202.23 73.7104C1202.19 72.7758 1202.15 71.8412 1202.11 70.8783C1201.99 64.3822 1202.97 59.5511 1207.55 54.7104C1209.72 53.4955 1209.72 53.4955 1211.55 52.7104C1211.55 53.3704 1211.55 54.0304 1211.55 54.7104C1217.24 53.2253 1217.24 53.2253 1221.05 49.2104C1222.9 46.1195 1224.85 45.2923 1228.24 44.226C1234.75 42.7671 1239.79 42.903 1245.73 46.1479C1253.18 51.1239 1257.47 57.018 1259.55 65.7104C1259.79 68.5687 1259.78 71.4018 1259.74 74.269C1259.74 75.4527 1259.74 75.4527 1259.73 76.6603C1259.72 79.1563 1259.7 81.652 1259.67 84.1479C1259.66 85.8503 1259.65 87.5528 1259.64 89.2553C1259.62 93.4071 1259.59 97.5587 1259.55 101.71C1260.15 101.707 1260.76 101.703 1261.38 101.699C1276.17 101.611 1290.97 101.545 1305.76 101.503C1312.91 101.483 1320.07 101.455 1327.22 101.409C1333.46 101.369 1339.7 101.343 1345.94 101.334C1349.24 101.329 1352.54 101.315 1355.84 101.287C1376.07 101.127 1393.79 101.797 1409.34 116.292C1420.08 128.083 1424.18 142.018 1424.05 157.728C1424.06 158.978 1424.06 160.227 1424.07 161.515C1424.09 164.959 1424.08 168.402 1424.07 171.846C1424.06 175.602 1424.07 179.358 1424.08 183.114C1424.1 189.689 1424.1 196.263 1424.09 202.838C1424.08 212.616 1424.09 222.393 1424.1 232.17C1424.13 249.635 1424.13 267.1 1424.12 284.565C1424.11 299.851 1424.11 315.137 1424.12 330.422C1424.12 332.474 1424.12 334.525 1424.12 336.576C1424.12 339.667 1424.12 342.758 1424.13 345.849C1424.14 374.584 1424.14 403.319 1424.13 432.054C1424.13 433.137 1424.13 434.22 1424.13 435.336C1424.13 444.13 1424.12 452.924 1424.12 461.718C1424.11 496.018 1424.11 530.319 1424.14 564.619C1424.17 603.167 1424.19 641.715 1424.18 680.263C1424.18 684.375 1424.18 688.486 1424.18 692.597C1424.17 694.115 1424.17 694.115 1424.17 695.664C1424.17 710.937 1424.18 726.21 1424.2 741.482C1424.21 758.854 1424.21 776.225 1424.19 793.597C1424.18 803.314 1424.18 813.031 1424.2 822.748C1424.21 829.245 1424.21 835.742 1424.19 842.239C1424.18 845.936 1424.17 849.634 1424.19 853.331C1424.28 872.331 1423.92 888.669 1412.54 904.71C1411.78 905.832 1411.78 905.832 1410.99 906.976C1410.51 907.548 1410.04 908.121 1409.54 908.71C1408.89 908.71 1408.22 908.71 1407.54 908.71C1407.3 909.31 1407.05 909.909 1406.79 910.527C1402.37 918.273 1389.88 922.399 1381.8 924.843C1374.34 926.411 1366.57 925.919 1358.98 925.835C1357.39 925.825 1355.79 925.816 1354.19 925.808C1350.31 925.786 1346.43 925.752 1342.54 925.71C1342.41 926.824 1342.41 926.824 1342.27 927.96C1340.2 944.8 1337.31 961.071 1333.28 977.568C1332.06 982.758 1331.03 987.984 1329.98 993.21C1328.11 1002.41 1325.83 1011.4 1323.2 1020.4C1322.5 1022.86 1321.84 1025.33 1321.18 1027.8C1318.44 1038.07 1315.53 1048.29 1312.42 1058.46C1312.1 1059.53 1311.77 1060.6 1311.44 1061.7C1309.67 1067.41 1307.74 1072.97 1305.42 1078.48C1304.5 1080.82 1303.79 1083.16 1303.11 1085.59C1301.7 1090.48 1299.8 1095.08 1297.8 1099.76C1296.35 1103.17 1294.98 1106.61 1293.63 1110.07C1292.02 1113.98 1290.28 1117.84 1288.54 1121.71C1288.03 1122.86 1287.51 1124.02 1286.98 1125.21C1268.25 1166.9 1247.06 1206.72 1221.55 1244.71C1219.9 1244.05 1218.25 1243.39 1216.55 1242.71C1216.55 1243.7 1216.55 1244.69 1216.55 1245.71C1215.89 1245.71 1215.23 1245.71 1214.55 1245.71C1214.77 1246.26 1215 1246.81 1215.23 1247.38C1215.68 1250.71 1214.4 1252.18 1212.61 1254.96C1211.76 1256.3 1211.76 1256.3 1210.89 1257.66C1210.45 1258.34 1210 1259.01 1209.55 1259.71C1208.56 1259.38 1207.57 1259.05 1206.55 1258.71C1206.55 1260.03 1206.55 1261.35 1206.55 1262.71C1205.23 1263.04 1203.9 1263.37 1202.55 1263.71C1202.8 1264.73 1203.05 1265.75 1203.31 1266.8C1203.6 1271.6 1202.11 1273.7 1199.23 1277.27C1198.3 1278.5 1197.36 1279.73 1196.43 1280.96C1195.71 1281.89 1195.71 1281.89 1194.97 1282.84C1193.17 1285.2 1191.5 1287.63 1189.82 1290.08C1182.18 1301.14 1173.9 1312.49 1160.55 1316.71C1151.13 1317.77 1143.11 1316.61 1135.29 1311.13C1128.4 1305.5 1124.24 1298.57 1123.17 1289.6C1123.02 1282.29 1123.6 1276.4 1128.55 1270.71C1130.59 1269.6 1130.59 1269.6 1132.55 1268.71C1133.21 1268.05 1133.87 1267.39 1134.55 1266.71C1135.37 1265.93 1136.2 1265.14 1137.05 1264.34C1139.24 1262.03 1140.2 1260.49 1141.55 1257.71C1142.84 1256.34 1144.17 1255 1145.55 1253.71C1144.89 1253.38 1144.23 1253.05 1143.55 1252.71C1145.19 1247.45 1148.49 1243.4 1151.73 1239.02C1152.92 1237.4 1154.11 1235.77 1155.3 1234.15C1155.86 1233.37 1156.43 1232.6 1157.01 1231.8C1168.34 1216.31 1178.58 1200.1 1188.55 1183.71C1188.99 1182.98 1189.43 1182.25 1189.89 1181.5C1200.23 1164.39 1209.82 1146.76 1218.54 1128.77C1219.25 1127.32 1219.96 1125.88 1220.67 1124.43C1228.05 1109.49 1234.39 1094.19 1240.55 1078.71C1241.26 1076.94 1241.97 1075.18 1242.68 1073.41C1244.1 1069.84 1245.48 1066.26 1246.82 1062.66C1247.57 1060.65 1248.34 1058.65 1249.12 1056.65C1253.82 1044.44 1257.4 1032.04 1260.81 1019.42C1261.7 1016.15 1262.65 1012.9 1263.61 1009.65C1266.27 1000.4 1268.51 991.028 1270.81 981.679C1271.3 979.686 1271.81 977.696 1272.33 975.708C1274.1 968.852 1275.45 962.017 1276.54 955.023C1276.86 953.081 1277.17 951.14 1277.48 949.199C1277.64 948.251 1277.79 947.303 1277.95 946.327C1278.64 942.147 1279.37 937.976 1280.11 933.805C1280.25 933.023 1280.39 932.242 1280.53 931.437C1280.87 929.528 1281.21 927.619 1281.54 925.71C1259.46 925.584 1237.38 925.521 1215.3 925.532C1205.05 925.535 1194.79 925.519 1184.54 925.453C1175.59 925.396 1166.65 925.378 1157.7 925.406C1152.97 925.42 1148.24 925.415 1143.51 925.362C1115.84 924.685 1115.84 924.685 1091.35 936.364C1088.57 938.438 1085.61 940.107 1082.61 941.835C1081.42 942.555 1080.23 943.276 1079.05 943.999C1072.76 947.809 1066.39 951.498 1060.05 955.21C1048.98 961.681 1048.98 961.681 1037.98 968.273C1033.3 971.105 1028.57 973.849 1023.81 976.558C1023.2 976.907 1022.59 977.256 1021.96 977.615C1018.88 979.37 1015.79 981.12 1012.7 982.865C1006.22 986.538 999.876 990.341 993.663 994.456C991.545 995.71 991.545 995.71 989.545 995.71C987.92 994.21 987.92 994.21 986.545 992.71C983.671 995.426 983.671 995.426 981.545 998.71C978.75 999.406 975.945 999.927 973.111 1000.44C972.264 1000.86 971.418 1001.28 970.545 1001.71C970.25 1002.81 969.955 1003.9 969.65 1005.03C968.405 1009.17 967.145 1010.15 963.443 1012.22C962.734 1012.59 962.025 1012.96 961.295 1013.34C959.75 1014.19 958.206 1015.05 956.662 1015.9C955.836 1016.35 955.009 1016.8 954.157 1017.27C949.518 1019.83 944.976 1022.56 940.42 1025.27C938.526 1026.39 936.631 1027.51 934.736 1028.63C930.026 1031.42 925.329 1034.23 920.638 1037.06C904.363 1046.84 888.005 1056.48 871.586 1066.02C870.218 1066.81 870.218 1066.81 868.822 1067.62C867.949 1068.13 867.077 1068.64 866.177 1069.16C862.603 1071.27 859.07 1073.44 855.543 1075.62C853.545 1076.71 853.545 1076.71 851.545 1076.71C852.642 1067.72 854.652 1059.55 857.67 1051.02C858.488 1048.64 859.303 1046.27 860.115 1043.89C860.524 1042.69 860.933 1041.5 861.355 1040.26C863.192 1034.78 864.872 1029.25 866.545 1023.71C869.27 1014.72 872.16 1005.8 875.17 996.898C878.172 988.012 880.942 979.106 883.448 970.069C885.197 963.801 887.196 957.652 889.302 951.497C891.174 945.969 892.797 940.396 894.357 934.773C896.787 926.104 899.445 917.52 902.232 908.96C902.613 907.763 902.994 906.565 903.386 905.332C903.752 904.224 904.117 903.117 904.494 901.976C904.817 900.984 905.141 899.992 905.473 898.969C905.827 898.224 906.181 897.478 906.545 896.71C907.535 896.38 908.525 896.05 909.545 895.71C910.278 893.695 910.278 893.695 910.545 891.71C911.205 891.71 911.865 891.71 912.545 891.71C912.947 890.751 912.947 890.751 913.357 889.773C914.545 887.71 914.545 887.71 917.545 886.71C917.339 885.597 917.132 884.483 916.92 883.335C916.796 882.139 916.673 880.943 916.545 879.71C918.545 877.71 918.545 877.71 920.494 877.47C921.289 877.474 922.084 877.479 922.903 877.483C923.804 877.483 924.704 877.484 925.633 877.484C926.607 877.494 927.581 877.504 928.584 877.515C929.58 877.518 930.576 877.521 931.602 877.524C934.792 877.535 937.981 877.56 941.17 877.585C943.329 877.595 945.488 877.605 947.647 877.613C952.946 877.635 958.246 877.668 963.545 877.71C963.359 878.494 963.174 879.278 962.982 880.085C962.285 882.681 962.285 882.681 963.545 884.71C962.902 887.272 962.187 889.71 961.357 892.21C961.148 892.9 960.939 893.59 960.723 894.3C959.034 899.442 959.034 899.442 956.416 900.878C955.799 901.153 955.181 901.427 954.545 901.71C953.84 903.956 953.84 903.956 953.795 906.523C953.738 907.375 953.682 908.227 953.623 909.105C953.57 910.872 953.583 912.643 953.654 914.41C953.545 916.71 953.545 916.71 951.545 918.71C951.586 919.618 951.628 920.525 951.67 921.46C951.511 925.595 949.956 927.422 947.545 930.71C946.571 933.632 946.418 935.725 946.295 938.773C945.813 944.895 943.626 949.47 940.545 954.71C939.885 954.71 939.225 954.71 938.545 954.71C938.545 959.66 938.545 964.61 938.545 969.71C940.195 969.05 941.845 968.39 943.545 967.71C946.357 967.585 946.357 967.585 948.545 967.71C948.545 967.05 948.545 966.39 948.545 965.71C950.525 965.38 952.505 965.05 954.545 964.71C954.545 964.05 954.545 963.39 954.545 962.71C955.679 962.257 956.814 961.803 957.982 961.335C961.592 960.139 961.592 960.139 962.545 957.71C964.519 956.66 966.521 955.661 968.545 954.71C970.899 953.828 970.899 953.828 971.545 950.71C972.137 950.696 972.728 950.682 973.338 950.667C977.856 950.395 979.931 950.257 983.42 947.148C984.121 946.344 984.822 945.539 985.545 944.71C986.535 944.71 987.525 944.71 988.545 944.71C988.545 944.05 988.545 943.39 988.545 942.71C989.37 942.504 990.195 942.298 991.045 942.085C995.691 940.26 1001.23 937.339 1003.54 932.71C1004.21 932.71 1004.87 932.71 1005.54 932.71C1005.54 932.05 1005.54 931.39 1005.54 930.71C1006.54 930.319 1007.53 929.927 1008.55 929.523C1011.43 928.3 1013.98 926.856 1016.61 925.148C1019.09 923.533 1020.93 922.584 1023.8 921.648C1026.66 920.904 1026.66 920.904 1028.55 918.648C1031.1 916.169 1033.06 916.027 1036.55 915.71C1036.55 915.05 1036.55 914.39 1036.55 913.71C1038.53 912.358 1040.53 911.025 1042.55 909.71C1042.88 909.05 1043.21 908.39 1043.55 907.71C1045.61 906.859 1045.61 906.859 1048.11 906.085C1048.93 905.825 1049.76 905.565 1050.61 905.296C1051.25 905.103 1051.89 904.91 1052.55 904.71C1052.55 904.05 1052.55 903.39 1052.55 902.71C1053.18 902.661 1053.82 902.612 1054.48 902.562C1055.3 902.487 1056.13 902.412 1056.98 902.335C1057.81 902.266 1058.63 902.196 1059.48 902.124C1060.16 901.988 1060.84 901.851 1061.55 901.71C1061.88 901.05 1062.21 900.39 1062.55 899.71C1064.3 898.733 1066.06 897.758 1067.83 896.796C1069.96 895.446 1071.14 893.781 1072.55 891.71C1073.21 891.71 1073.87 891.71 1074.55 891.71C1074.55 891.05 1074.55 890.39 1074.55 889.71C1077.6 889.167 1080.43 888.71 1083.55 888.71C1084.89 887.73 1086.23 886.731 1087.55 885.71C1088.21 885.71 1088.87 885.71 1089.55 885.71C1089.55 885.05 1089.55 884.39 1089.55 883.71C1090.21 883.71 1090.87 883.71 1091.55 883.71C1091.55 883.05 1091.55 882.39 1091.55 881.71C1099.18 878.199 1105.9 877.563 1114.24 877.583C1115.21 877.582 1116.18 877.58 1117.18 877.579C1120.42 877.575 1123.67 877.578 1126.92 877.581C1129.25 877.58 1131.58 877.578 1133.91 877.576C1140.23 877.571 1146.55 877.573 1152.88 877.576C1158.82 877.578 1164.77 877.577 1170.71 877.575C1183.2 877.572 1195.68 877.576 1208.17 877.581C1218.88 877.585 1229.6 877.585 1240.32 877.58C1252.76 877.575 1265.21 877.573 1277.65 877.576C1284.24 877.577 1290.83 877.577 1297.41 877.574C1303.6 877.571 1309.79 877.573 1315.99 877.579C1318.26 877.58 1320.54 877.58 1322.81 877.578C1325.91 877.575 1329.01 877.578 1332.11 877.583C1333.01 877.581 1333.92 877.579 1334.85 877.577C1335.68 877.579 1336.51 877.582 1337.37 877.585C1338.08 877.585 1338.8 877.585 1339.54 877.585C1341.65 877.717 1343.5 878.175 1345.54 878.71C1347.16 878.737 1348.78 878.703 1350.39 878.624C1351.31 878.581 1352.22 878.537 1353.17 878.492C1354.12 878.44 1355.07 878.388 1356.04 878.335C1356.99 878.292 1357.95 878.248 1358.92 878.203C1364.83 878.014 1364.83 878.014 1370.54 876.71C1375.68 870.548 1375.65 864.16 1375.75 856.422C1375.76 855.727 1375.77 855.032 1375.78 854.316C1375.81 852.024 1375.84 849.733 1375.86 847.441C1375.88 845.815 1375.9 844.188 1375.92 842.562C1375.98 838.232 1376.03 833.902 1376.08 829.573C1376.11 826.901 1376.14 824.229 1376.17 821.558C1376.45 799.326 1376.68 777.097 1376.51 754.863C1376.5 754.092 1376.5 753.321 1376.5 752.526C1376.48 750.536 1376.47 748.545 1376.45 746.555C1376.54 743.71 1376.54 743.71 1377.54 741.71C1378.2 741.71 1378.86 741.71 1379.54 741.71C1379.21 739.4 1378.89 737.09 1378.54 734.71C1377.89 734.71 1377.22 734.71 1376.54 734.71C1376.52 727.207 1376.5 719.704 1376.49 712.201C1376.49 709.656 1376.48 707.111 1376.47 704.567C1376.43 692.273 1376.41 680.042 1377.26 667.774C1377.64 661.752 1377.27 655.895 1376.81 649.889C1376.3 642.732 1376.4 635.55 1376.41 628.378C1376.42 625.789 1376.41 623.201 1376.41 620.613C1376.41 618.96 1376.41 617.308 1376.41 615.656C1376.41 614.885 1376.41 614.114 1376.41 613.32C1376.43 607.94 1376.43 607.94 1377.54 605.71C1378.2 605.71 1378.86 605.71 1379.54 605.71C1379.06 604.716 1378.57 603.721 1378.07 602.697C1376.4 598.784 1376.13 595.147 1376.18 590.931C1376.17 590.174 1376.17 589.419 1376.17 588.64C1376.16 586.11 1376.17 583.58 1376.18 581.051C1376.18 579.217 1376.18 577.384 1376.18 575.551C1376.17 570.516 1376.18 565.481 1376.2 560.445C1376.21 555.015 1376.21 549.584 1376.2 544.153C1376.2 534.745 1376.21 525.337 1376.23 515.928C1376.25 502.326 1376.26 488.723 1376.26 475.12C1376.27 453.051 1376.29 430.982 1376.32 408.912C1376.35 387.473 1376.37 366.035 1376.38 344.596C1376.38 343.935 1376.38 343.274 1376.38 342.593C1376.39 335.297 1376.39 328.001 1376.39 320.704C1376.43 265.706 1376.48 210.708 1376.54 155.71C1375.55 155.38 1374.57 155.05 1373.54 154.71C1372.1 151.815 1371.54 149.968 1371.54 146.71C1358.77 137.129 1340.73 139.578 1325.7 139.695C1322.32 139.719 1318.95 139.706 1315.57 139.695C1309.91 139.676 1304.26 139.665 1298.6 139.655C1296.16 139.65 1293.72 139.644 1291.28 139.635C1287.75 139.623 1284.22 139.617 1280.69 139.613C1279.61 139.608 1278.53 139.602 1277.42 139.597C1266.1 139.317 1266.1 139.317 1255.55 142.71C1255.71 143.281 1255.87 143.853 1256.03 144.441C1256.54 146.701 1256.7 148.707 1256.75 151.02C1256.77 151.861 1256.79 152.701 1256.81 153.567C1256.84 154.914 1256.84 154.914 1256.86 156.288C1256.88 157.215 1256.9 158.142 1256.92 159.096C1256.99 162.051 1257.05 165.006 1257.11 167.96C1257.15 169.966 1257.19 171.971 1257.24 173.976C1257.35 178.887 1257.45 183.799 1257.55 188.71C1258.54 189.04 1259.53 189.37 1260.55 189.71C1262.76 195.227 1263.74 202.48 1261.67 208.085C1261.3 208.952 1260.93 209.818 1260.55 210.71C1260.26 212.208 1259.99 213.708 1259.73 215.21C1258.82 219.656 1257.04 221.751 1253.55 224.71C1253.22 225.37 1252.89 226.03 1252.55 226.71C1251.89 226.71 1251.23 226.71 1250.55 226.71C1250.55 227.37 1250.55 228.03 1250.55 228.71C1249.89 228.71 1249.23 228.71 1248.55 228.71C1248.55 229.37 1248.55 230.03 1248.55 230.71C1245.26 231.51 1243.83 231.807 1240.55 230.71C1240.22 231.7 1239.89 232.69 1239.55 233.71C1234.1 234.617 1228.74 234.821 1223.23 234.835C1222.17 234.842 1222.17 234.842 1221.09 234.849C1216.4 234.836 1213.67 234.779 1210.17 231.46C1209.3 230.553 1208.44 229.645 1207.55 228.71C1206.62 227.865 1205.69 227.019 1204.73 226.148C1202.55 223.71 1202.55 223.71 1202.55 219.71C1201.91 219.303 1201.28 218.896 1200.63 218.476C1197.43 215.769 1197.58 212.405 1197.23 208.46C1197.15 207.722 1197.06 206.983 1196.97 206.222C1196.49 201.558 1196.52 197.33 1197.55 192.71C1198.8 191.235 1200.05 189.761 1201.34 188.323C1206.55 181.33 1204.73 169.639 1204.61 161.335C1204.58 159.144 1204.56 156.953 1204.54 154.762C1204.52 152.79 1204.49 150.818 1204.46 148.846C1204.55 145.71 1204.55 145.71 1205.55 142.71C1204.56 142.71 1203.57 142.71 1202.55 142.71C1202.55 154.59 1202.55 166.47 1202.55 178.71C1202.22 178.71 1201.89 178.71 1201.55 178.71C1201.55 166.5 1201.55 154.29 1201.55 141.71C1196.84 139.776 1196.84 139.776 1192.23 139.585C1191.02 139.627 1189.8 139.668 1188.55 139.71C1188.55 139.38 1188.55 139.05 1188.55 138.71C1185.2 138.636 1182.74 138.645 1179.55 139.71C1179.55 139.05 1179.55 138.39 1179.55 137.71C1178.83 137.873 1178.11 138.035 1177.37 138.202C1174.64 138.693 1172.17 138.837 1169.4 138.84C1168.41 138.843 1167.41 138.846 1166.38 138.849C1165.32 138.847 1164.25 138.845 1163.15 138.843C1162.05 138.844 1160.95 138.845 1159.82 138.846C1157.5 138.847 1155.18 138.845 1152.86 138.841C1149.29 138.835 1145.73 138.841 1142.16 138.847C1139.91 138.846 1137.66 138.845 1135.4 138.843C1133.8 138.846 1133.8 138.846 1132.15 138.849C1131.17 138.846 1130.18 138.843 1129.17 138.84C1128.3 138.839 1127.43 138.838 1126.53 138.837C1124.55 138.71 1124.55 138.71 1123.55 137.71C1121.67 137.55 1121.67 137.55 1119.55 137.585C1118.82 137.583 1118.1 137.58 1117.36 137.578C1115.52 137.513 1115.52 137.513 1114.55 138.71C1112.26 138.87 1109.97 138.962 1107.68 139.027C1106.98 139.048 1106.27 139.068 1105.55 139.09C1103.26 139.156 1100.96 139.215 1098.67 139.273C1097.11 139.316 1095.55 139.36 1093.99 139.404C1084.94 139.648 1075.89 139.821 1066.84 139.674C1063.77 139.635 1061.49 139.728 1058.55 140.71C1056.87 140.398 1055.21 140.061 1053.55 139.71C1051.49 139.626 1049.43 139.593 1047.38 139.597C1046.16 139.597 1044.94 139.597 1043.68 139.597C1042.37 139.602 1041.06 139.607 1039.71 139.613C1038.35 139.615 1036.99 139.616 1035.63 139.617C1032.06 139.621 1028.49 139.631 1024.92 139.642C1021.28 139.652 1017.63 139.657 1013.98 139.662C1006.84 139.672 999.691 139.689 992.545 139.71C992.215 140.37 991.885 141.03 991.545 141.71C990.885 141.71 990.225 141.71 989.545 141.71C989.709 142.269 989.874 142.828 990.043 143.404C990.585 145.896 990.626 148.058 990.572 150.605C990.552 152.028 990.552 152.028 990.531 153.48C990.515 154.484 990.499 155.488 990.482 156.523C990.387 167.532 991.317 177.909 993.545 188.71C994.535 189.04 995.525 189.37 996.545 189.71C999.144 195.812 999.782 204.346 997.975 210.722C996.532 214.223 994.709 217.605 992.545 220.71C991.885 220.71 991.225 220.71 990.545 220.71C990.39 221.669 990.39 221.669 990.232 222.648C990.006 223.328 989.779 224.009 989.545 224.71C988.555 225.04 987.565 225.37 986.545 225.71C986.545 226.37 986.545 227.03 986.545 227.71C983.545 228.71 983.545 228.71 981.545 227.71C981.545 228.37 981.545 229.03 981.545 229.71C980.596 230.143 979.647 230.577 978.67 231.023C975.345 232.503 975.345 232.503 973.545 235.71C970.177 237.08 966.927 236.689 963.357 236.398C962.291 236.319 961.225 236.241 960.127 236.16C959.275 236.011 958.423 235.863 957.545 235.71C957.215 235.05 956.885 234.39 956.545 233.71C955.885 234.04 955.225 234.37 954.545 234.71C954.875 235.37 955.205 236.03 955.545 236.71C951.233 235.653 948.552 234.942 945.545 231.71C944.215 230.603 942.881 229.499 941.545 228.398C938.191 225.476 936.063 222.98 934.545 218.71C934.545 217.39 934.545 216.07 934.545 214.71C934.215 214.38 933.885 214.05 933.545 213.71C933.333 212.007 933.176 210.297 933.045 208.585C932.785 205.288 932.446 202.16 931.857 198.898C931.496 195.208 932.047 193.082 933.545 189.71C934.056 189.165 934.567 188.62 935.093 188.058C937.213 184.63 937.005 181.245 937.022 177.331C937.037 176.523 937.053 175.715 937.069 174.882C937.116 172.304 937.144 169.726 937.17 167.148C937.207 164.566 937.247 161.985 937.293 159.404C937.32 157.799 937.341 156.194 937.356 154.589C937.401 151.377 937.522 148.778 938.545 145.71C938.151 143.072 938.151 143.072 937.545 140.71C936.885 140.71 936.225 140.71 935.545 140.71C935.545 140.05 935.545 139.39 935.545 138.71C931.226 138.83 926.906 138.955 922.587 139.083C921.124 139.125 919.661 139.167 918.198 139.208C916.07 139.267 913.942 139.329 911.815 139.394C911.11 139.415 910.406 139.437 909.681 139.459C905.33 139.606 901.018 139.908 896.682 140.308C891.854 140.713 887.419 140.511 882.617 139.968C878.834 139.651 875.072 139.631 871.279 139.648C870.186 139.653 870.186 139.653 869.07 139.658C866.811 139.671 864.553 139.69 862.295 139.71C859.29 139.737 856.285 139.757 853.279 139.773C851.962 139.784 850.644 139.796 849.286 139.808C845.592 139.712 842.183 139.309 838.545 138.71C838.215 139.37 837.885 140.03 837.545 140.71C833.255 140.71 828.965 140.71 824.545 140.71C824.545 140.05 824.545 139.39 824.545 138.71C823.885 138.71 823.225 138.71 822.545 138.71C822.545 138.05 822.545 137.39 822.545 136.71C820.235 136.71 817.925 136.71 815.545 136.71C815.31 137.334 815.076 137.958 814.834 138.601C813.177 141.313 811.931 141.6 808.92 142.46C808.103 142.703 807.285 142.945 806.443 143.195C805.817 143.365 805.19 143.535 804.545 143.71C804.545 144.37 804.545 145.03 804.545 145.71C803.4 145.989 803.4 145.989 802.233 146.273C799.211 147.889 798.376 149.218 797.127 152.358C795.843 157.548 796.29 162.965 796.42 168.273C796.549 175.235 796.657 182.115 796.061 189.058C795.281 198.775 795.396 208.507 795.415 218.25C795.42 221.571 795.415 224.893 795.408 228.214C795.409 230.377 795.41 232.54 795.412 234.703C795.41 235.67 795.408 236.637 795.406 237.633C795.425 243.271 795.66 248.865 796.047 254.488C796.587 262.421 796.674 270.321 796.643 278.273C796.641 279.685 796.639 281.097 796.638 282.509C796.635 286.165 796.625 289.821 796.614 293.477C796.603 297.232 796.599 300.987 796.594 304.742C796.583 312.065 796.566 319.387 796.545 326.71C790.834 325.828 790.834 325.828 788.233 324.773C778.559 320.949 767.913 320.653 757.709 322.347C756.665 322.467 755.621 322.587 754.545 322.71C752.545 320.71 752.545 320.71 751.545 318.71C752.205 318.71 752.865 318.71 753.545 318.71C753.382 318.137 753.22 317.564 753.053 316.973C752.549 314.73 752.422 312.803 752.425 310.509C752.423 309.679 752.422 308.849 752.421 307.993C752.426 306.64 752.426 306.64 752.431 305.26C752.431 304.304 752.431 303.347 752.431 302.362C752.432 299.202 752.44 296.042 752.447 292.882C752.449 290.691 752.451 288.499 752.452 286.308C752.455 280.541 752.465 274.774 752.476 269.007C752.487 263.121 752.491 257.236 752.496 251.351C752.507 239.804 752.524 228.257 752.545 216.71C751.885 216.71 751.225 216.71 750.545 216.71C750.428 207.417 750.34 198.124 750.286 188.83C750.26 184.513 750.225 180.197 750.168 175.88C750.113 171.704 750.083 167.529 750.071 163.353C750.061 161.77 750.044 160.187 750.016 158.604C749.845 148.255 750.969 140.225 755.545 130.71C755.944 129.863 756.343 129.016 756.754 128.142C762.368 116.71 771.768 108.575 783.539 103.922C791.071 101.356 798.289 101.305 806.174 101.37C807.624 101.371 809.074 101.37 810.524 101.368C814.43 101.368 818.336 101.385 822.243 101.406C826.336 101.425 830.429 101.427 834.522 101.43C842.26 101.44 849.998 101.464 857.736 101.494C866.551 101.528 875.367 101.544 884.182 101.559C902.303 101.591 920.424 101.643 938.545 101.71C938.539 100.499 938.533 99.2885 938.527 98.0409C938.523 96.4229 938.518 94.8049 938.514 93.1869C938.51 92.3923 938.505 91.5977 938.501 90.779C938.487 84.0455 938.882 77.4135 939.545 70.7104C938.555 70.7104 937.565 70.7104 936.545 70.7104C935.995 64.111 936.591 59.1522 940.545 53.7104C943.002 51.047 945.619 48.8425 948.545 46.7104C949.141 46.2734 949.736 45.8364 950.35 45.3862C958.447 40.4341 968.65 41.384 976.982 45.2104Z" fill="#052735"/>
<path d="M962.25 455C965.396 455.252 966.859 455.405 969.375 457.25C971.771 460.179 973.228 462.285 973.803 466.05C973.229 470.341 971.115 472.631 968.281 475.707C967.745 476.309 967.209 476.912 966.657 477.532C960.897 483.931 954.844 490.05 948.727 496.104C946.843 497.969 944.968 499.842 943.094 501.717C941.886 502.92 940.678 504.122 939.469 505.324C938.915 505.877 938.36 506.43 937.789 507C930.502 514.199 930.502 514.199 926.625 514.375C921.848 512.721 918.952 509.748 915.375 506.25C914.913 505.802 914.451 505.353 913.975 504.892C902.544 493.772 902.544 493.772 902 488.875C902.433 484.687 903.437 483.188 906.375 480.25C909.254 478.81 911.165 478.947 914.375 479.25C918.685 481.012 921.922 483.209 924.375 487.25C927.299 486.623 929.823 485.834 932.375 484.25C932.705 483.26 933.035 482.27 933.375 481.25C935.812 478.562 935.812 478.562 938.375 476.25C939.035 476.25 939.695 476.25 940.375 476.25C940.606 475.692 940.836 475.134 941.074 474.559C942.72 471.637 944.786 469.649 947.188 467.312C948.04 466.478 948.892 465.644 949.77 464.785C950.629 463.949 951.489 463.112 952.375 462.25C954.044 460.586 955.711 458.919 957.375 457.25C959.375 455.25 959.375 455.25 962.25 455Z" fill="#0D2C36"/>
<path d="M969.375 585.255C972.44 586.905 974.683 588.311 976.75 591.13C977.594 594 977.618 596.267 977.375 599.255C971.896 608.684 962.313 616.592 954.616 624.22C952.478 626.339 950.348 628.468 948.219 630.597C946.857 631.953 945.495 633.31 944.133 634.665C943.181 635.615 943.181 635.615 942.21 636.584C941.619 637.169 941.028 637.754 940.418 638.357C939.643 639.126 939.643 639.126 938.852 639.912C936.432 642.113 934.754 643.207 931.488 643.622C927.616 643.165 926.355 642.056 923.562 639.38C922.71 638.565 921.858 637.751 920.98 636.911C907.599 623.269 907.599 623.269 907 617.88C907.444 613.591 908.136 612.078 911.375 609.255C915.66 607.906 917.536 607.827 921.562 609.88C924.253 612.152 926.318 614.406 928.375 617.255C936.281 616.237 943.455 606.312 948.363 600.548C951.147 597.375 954.015 594.299 956.938 591.255C957.48 590.666 958.023 590.077 958.582 589.471C962.072 585.886 964.129 584.348 969.375 585.255Z" fill="#0C2D36"/>
<path d="M963.438 715C968.105 715.819 969.678 717.303 973 720.625C974.545 723.716 974.272 726.213 974 729.625C972.475 732.258 972.475 732.258 970.289 734.75C969.466 735.692 968.642 736.635 967.794 737.605C966.867 738.616 965.935 739.622 965 740.625C964.516 741.144 964.032 741.663 963.534 742.198C960.418 745.51 957.241 748.756 954.024 751.971C952.359 753.641 950.711 755.326 949.062 757.012C947.988 758.092 946.912 759.172 945.836 760.25C945.353 760.747 944.871 761.244 944.374 761.756C940.244 765.832 935.943 768.625 930 768.625C930.33 767.965 930.66 767.305 931 766.625C930.051 766.976 929.103 767.326 928.125 767.688C925 768.625 925 768.625 923 767.625C921.515 768.12 921.515 768.12 920 768.625C905.471 754.493 905.471 754.493 903 748.625C903 744.679 903.789 742.925 906.062 739.688C909 737.625 909 737.625 912.812 737.375C917.934 738.36 921.651 741.769 925 745.625C925 746.285 925 746.945 925 747.625C935.871 743.849 943.974 732.536 951.582 724.297C952.721 723.073 953.86 721.849 955 720.625C955.712 719.846 955.712 719.846 956.439 719.051C958.889 716.457 959.8 715.661 963.438 715Z" fill="#0C2C36"/>
<path d="M966 324.313C969.215 326.478 972.248 328.809 974 332.313C974.399 335.969 974.305 337.808 972.383 340.989C967.747 346.402 963.017 351.361 957.555 355.95C954.783 358.514 952.382 361.26 949.918 364.117C946.56 367.961 943.051 371.648 939.5 375.313C938.779 376.088 938.059 376.862 937.316 377.661C931.974 383.138 931.974 383.138 927.211 383.993C923.907 383.293 922.521 382.749 920.125 380.438C919.468 379.81 918.81 379.182 918.133 378.536C914.314 374.556 910.619 370.476 907 366.313C907.66 364.993 908.32 363.673 909 362.313C909.33 362.973 909.66 363.633 910 364.313C909.814 362.952 909.814 362.952 909.625 361.563C909.749 360.491 909.872 359.418 910 358.313C913 355.938 913 355.938 916 354.313C919 356.313 919 356.313 920 358.313C920.578 358.169 921.155 358.024 921.75 357.876C924 357.313 924 357.313 925.881 357.019C928.704 356.078 930.077 354.576 932.152 352.454C932.929 351.667 933.706 350.881 934.506 350.071C935.308 349.243 936.111 348.416 936.938 347.563C937.736 346.751 938.535 345.939 939.357 345.102C940.899 343.533 942.438 341.961 943.972 340.385C945.611 338.711 947.267 337.061 948.941 335.422C951.147 333.292 951.147 333.292 953 330.313C953.66 330.313 954.32 330.313 955 330.313C955 329.653 955 328.993 955 328.313C958.563 324.75 960.968 323.307 966 324.313Z" fill="#0B2C36"/>
<path d="M752.5 319.5L750.5 216.5H752.5H764.5L756 319.5H752.5Z" fill="#13303D"/>
<path d="M752.5 319.5L750.5 216.5H752.5H764.5L756 319.5H752.5Z" fill="black" fill-opacity="0.2"/>
<path d="M811.5 141L803.5 145.5L807.5 135.5H938V141H811.5Z" fill="#13303D"/>
<path d="M811.5 141L803.5 145.5L807.5 135.5H938V141H811.5Z" fill="black" fill-opacity="0.2"/>
<path d="M982.5 231.5L972.5 235L997.5 191L1000 204.5L997.5 215.5L992.5 224.5L982.5 231.5Z" fill="#13303D"/>
<path d="M982.5 231.5L972.5 235L997.5 191L1000 204.5L997.5 215.5L992.5 224.5L982.5 231.5Z" fill="black" fill-opacity="0.2"/>
<path d="M954.5 224.5L936 219.5L931 209V197H959L954.5 224.5Z" fill="#13303D"/>
<path d="M954.5 224.5L936 219.5L931 209V197H959L954.5 224.5Z" fill="black" fill-opacity="0.2"/>
<path d="M988.5 148L992.5 139H985.5L988.5 148Z" fill="#13303D"/>
<path d="M988.5 148L992.5 139H985.5L988.5 148Z" fill="black" fill-opacity="0.2"/>
<path d="M1134 139H1075.5L1068 123.5L1106.5 120.5L1134 139Z" fill="#13303D"/>
<path d="M1134 139H1075.5L1068 123.5L1106.5 120.5L1134 139Z" fill="black" fill-opacity="0.2"/>
<path d="M1203.5 141L1167.5 138L1194 127.5L1203.5 141Z" fill="#13303D"/>
<path d="M1203.5 141L1167.5 138L1194 127.5L1203.5 141Z" fill="black" fill-opacity="0.2"/>
<path d="M1198 216V210L1203.5 213.5V223.5L1198 216Z" fill="#13303D"/>
<path d="M1198 216V210L1203.5 213.5V223.5L1198 216Z" fill="black" fill-opacity="0.2"/>
<path d="M1238.5 232.5H1234.5L1244.5 216L1259 219L1254 226.5L1248 230.5L1238.5 232.5Z" fill="#13303D"/>
<path d="M1238.5 232.5H1234.5L1244.5 216L1259 219L1254 226.5L1248 230.5L1238.5 232.5Z" fill="black" fill-opacity="0.2"/>
<path d="M1270.5 136L1254 148.5L1248 127.5L1270.5 136Z" fill="#13303D"/>
<path d="M1270.5 136L1254 148.5L1248 127.5L1270.5 136Z" fill="black" fill-opacity="0.2"/>
<path d="M1378 167L1374 151.5L1384 155.5L1378 167Z" fill="#13303D"/>
<path d="M1378 167L1374 151.5L1384 155.5L1378 167Z" fill="black" fill-opacity="0.2"/>
<path d="M1376 835.5V584.5L1389.5 585.5L1396 667.5L1392 772.5L1376 835.5Z" fill="#13303D"/>
<path d="M1376 835.5V584.5L1389.5 585.5L1396 667.5L1392 772.5L1376 835.5Z" fill="black" fill-opacity="0.2"/>
<path d="M1331.5 880L1380.5 874.5L1362 889.5L1331.5 880Z" fill="#13303D"/>
<path d="M1331.5 880L1380.5 874.5L1362 889.5L1331.5 880Z" fill="black" fill-opacity="0.2"/>
<path d="M993 952L946.243 968.137L936.5 971.5L903.5 941L907 897.5L918.5 878.5H964.5L936.5 971.5L1088.5 882.5L1097 878.5H1107.5L1079.5 908.5L993 952Z" fill="#13303D"/>
<path d="M993 952L946.243 968.137L936.5 971.5L903.5 941L907 897.5L918.5 878.5H964.5L936.5 971.5L1088.5 882.5L1097 878.5H1107.5L1079.5 908.5L993 952Z" fill="black" fill-opacity="0.2"/>
<path d="M792.5 885L788 859.5L792.5 851.5L793.5 836L788 851.5L760 810.5L799 795.5V817.5V820.5L792.5 851.5L816.5 906.5L824 928.5L829 948.5L792.5 885Z" fill="#032537"/>
<path d="M995 993L965.5 1010.5V990L995 993Z" fill="#032537"/>
<path d="M845 1170L836 1195.5L866 1182.5V1148L856 1153L845 1170Z" fill="#032537"/>
<path d="M753 1215L739.5 1231L764.5 1224V1207.5L753 1215Z" fill="#032537"/>
<path d="M1222 1244L1202 1271.5L1189 1255.5L1202 1232L1222 1244Z" fill="#032537"/>
<path d="M1144.5 1249.5L1143.04 1260.22L1141.5 1271.5L1128 1274.5L1140.54 1255.5L1142.52 1252.5L1144.5 1249.5Z" fill="#032537"/>
<path d="M1015.5 1263L1005.5 1281H1020.5L1015.5 1263Z" fill="#032537"/>
<path d="M973.5 1259L968.5 1267.5H978L973.5 1259Z" fill="#032537"/>
<path d="M1020.5 1195.5L1015.5 1203L1011.5 1195.5H1020.5Z" fill="#032537"/>
<path d="M978 1195.5L973.5 1206L968.5 1195.5H978Z" fill="#032537"/>
<path d="M539.5 1338C527 1347.83 501 1368.3 497 1371.5H547L539.5 1338Z" fill="#032537"/>
<path d="M1202.5 83L1204 79L1205.5 78L1204 100.5L1202.5 83Z" fill="#032537"/>
<path d="M1207.5 55.5H1209.5H1230L1233.5 43.5H1230L1222 46L1215 49.5L1207.5 55.5Z" fill="#032537"/>
<path d="M1202.5 182.5V139L1212.5 136.5V198H1197.5V192.5L1199.5 187.5L1202.5 182.5Z" fill="#032537"/>
<path d="M1259 189.5H1254V182.5H1255.5L1250.5 165L1259 139L1255.5 182.5H1257L1259 189.5Z" fill="#032537"/>
<path d="M1215 234.5L1217.5 232L1263 202V205.5L1259 218.5L1254 227L1247.5 230.5L1238 233.25L1233.5 234.5H1224H1215Z" fill="#032537"/>
<path d="M990.5 180.5L995.5 190H990.5V180.5Z" fill="#032537"/>
<path d="M905 364L912 369L921 364L916.5 354.5L912 349H908.5H905L902 354.5L905 364Z" fill="#0B2C36"/>
<path d="M955 328L950 335H962L955 328Z" fill="#0B2C36"/>
<path d="M935 480L926.5 489.5L940 487L945 469.5L935 480Z" fill="#0B2C36"/>
<path d="M933.5 748L922.5 744L920.5 754L933.5 748Z" fill="#0B2C36"/>
<path d="M924.5 770.5L920.5 766.5L940 758.5V764.5L935 768L931.5 770.5H928H924.5Z" fill="#0B2C36"/>
<path d="M922.5 357.5L912.5 349.5L909.5 348H907.5L904 349.5L902.5 352L901 354.5V357.5L902.5 360.5L907.5 366.5L917 363L922.5 357.5Z" fill="#0B2C36"/>
</svg>
